<svg width="118" height="25" viewBox="0 0 118 25" xmlns="http://www.w3.org/2000/svg" xmlns:xlink="http://www.w3.org/1999/xlink"><title>logo-kitabisa biru</title><defs><path d="M10.556 15.042c.088-.028.162-.058.239-.075 1.324-.301 2.705.542 3.065 1.87.03.106.05.215.08.322a2.629 2.629 0 0 0 2.847 1.924 2.64 2.64 0 0 0 2.344-2.42c.096-1.228-.71-2.382-1.9-2.726-.552-.159-1.093-.127-1.636.05-1.22.397-2.506-.223-3.06-1.228-.088-.16-.085-.286.004-.445.521-.925 1.635-1.465 2.693-1.284.208.035.412.096.617.147a2.687 2.687 0 0 0 2.825-1.053c.609-.869.485-2.337-.055-3.073-.948-1.288-2.855-1.212-3.692-.558-.557.436-.888.993-1.052 1.675-.248 1.035-.926 1.669-1.942 1.944a2.143 2.143 0 0 1-1.387-.075c.01-.163.008-.323.03-.48.088-.643.39-1.168.87-1.609.723-.665.997-1.5.821-2.46-.235-1.282-1.415-2.212-2.789-2.124-1.503.097-2.671 1.545-2.418 3.024a2.74 2.74 0 0 0 .91 1.624c.609.543.865 1.234.817 2.037-1.083.467-1.712 1.256-1.745 2.416-.035 1.245.616 2.08 1.75 2.584.036.808-.223 1.499-.834 2.043-.493.44-.815.975-.896 1.63-.095.77.034 1.483.65 2.036.149.135.277.294.431.422.153.127.314.258.493.336a2.636 2.636 0 0 0 3.2-.898 2.626 2.626 0 0 0-.242-3.33c-.11-.117-.235-.222-.344-.34-.5-.534-.723-1.167-.694-1.906zm14.398-2.398c.04 6.455-5.221 12.307-12.37 12.305A12.347 12.347 0 0 1 .162 12.582C.17 5.733 5.746.195 12.593.224c6.983.03 12.42 5.714 12.361 12.42z" id="a"/></defs><g fill="none" fill-rule="evenodd"><mask id="b" fill="#fff"><use xlink:href="#a"/></mask><use fill="#01ACEC" xlink:href="#a"/><path fill="#1996C2" mask="url(#b)" d="M11.39 4.023l3.794 3.268 3.526-.201 6.808 6.75-1.378 8.587-6.859 2.704-5.322.444-.767-.408-3.422-4.242.29-2.47 1.02-1.988.109-1.628-1.38-1.39-.04-1.74 1.084-1.073.47-1.232-.498-1.29L7.759 5.8l.95-1.206 1.36-.456.804.143z"/><path d="M33.654 13.38l-.453.48c-.235.252-.464.51-.706.755a.544.544 0 0 0-.16.42c.005 1.193.002 2.386.002 3.58v.363H30V6.025h2.326c.004.294.009.592.01.89.003.294.001.588.001.881V11.4l.058.029c.07-.074.143-.145.212-.22 1.5-1.656 3-3.31 4.493-4.971A.634.634 0 0 1 37.632 6c.823.013 1.645.005 2.468.005h.279c.016.03.023.038.024.047.002.01 0 .02-.005.028-.016.025-.031.05-.05.071l-5.121 5.519c-.006.007-.007.017-.029.07L41 18.954c-.088.019-.14.04-.192.04-.842.002-1.685-.004-2.527.006-.179.002-.267-.089-.36-.209l-3.533-4.5c-.182-.232-.363-.465-.546-.696-.054-.067-.114-.13-.188-.215m31.814-2.661v2.85c0 .735-.006 1.471.002 2.207.006.574.244.889.812 1.03.299.075.614.114.923.12 1.232.027 1.867-.47 2.121-1.642.182-.837.182-1.683.105-2.529a3.082 3.082 0 0 0-.343-1.186c-.26-.485-.662-.807-1.208-.924-.795-.17-1.587-.086-2.412.074zM63 5h2.467v3.793c.443-.044.843-.09 1.244-.122a6.174 6.174 0 0 1 2.042.169c1.49.382 2.472 1.304 2.908 2.727.474 1.548.456 3.112-.085 4.643-.557 1.577-1.732 2.475-3.424 2.719-1.035.15-2.058.071-3.036-.307-1.125-.436-1.839-1.223-2.061-2.392a3.9 3.9 0 0 1-.053-.723C63 12.107 63 8.708 63 5.309V5zm-4.277 9.264c-.057-.017-.11-.04-.164-.048-.582-.087-1.17-.13-1.754-.063-.307.035-.613.12-.905.225a.96.96 0 0 0-.607.652c-.234.774.175 1.574.93 1.807.51.157 1.028.154 1.542.02.554-.145.902-.511.95-1.1.04-.491.008-.989.008-1.493m-.022-1.507c.024-1.035-.544-1.693-1.531-1.786a7.09 7.09 0 0 0-2.86.324l-.293.094c-.06-.225-.072-1.489-.02-1.846a5.703 5.703 0 0 1 1.377-.407c.94-.165 1.881-.202 2.82.015 1.57.362 2.596 1.453 2.754 3.279.075.861.044 1.733.05 2.6.004.37.004.742-.034 1.109-.11 1.045-.634 1.816-1.525 2.322-.513.291-1.072.435-1.651.495-.846.087-1.684.057-2.502-.205-.973-.312-1.713-.903-2.082-1.912a3.162 3.162 0 0 1-.126-1.81 2.7 2.7 0 0 1 1.355-1.823c.566-.32 1.181-.463 1.817-.53a8.81 8.81 0 0 1 2.068.045c.12.016.242.023.383.036m32.019 1.509c-.06-.018-.104-.036-.15-.043-.582-.09-1.17-.132-1.756-.066-.307.034-.613.12-.907.22a.964.964 0 0 0-.595.59c-.268.707.096 1.574.789 1.83.607.224 1.23.22 1.84.002.463-.167.737-.524.771-1.022.034-.492.008-.99.008-1.511m-4.749-2.862V9.588c.023-.022.04-.05.064-.059 1.424-.539 2.879-.707 4.359-.313 1.472.392 2.286 1.42 2.531 2.94.05.305.066.62.069.93.009.877.006 1.755.003 2.632-.005 1.393-.714 2.446-1.98 2.946-.872.343-1.778.381-2.693.3a4.611 4.611 0 0 1-1.38-.333c-1.706-.714-2.147-2.34-1.865-3.62.188-.854.696-1.457 1.445-1.852.54-.284 1.122-.415 1.72-.478a8.88 8.88 0 0 1 2.073.045c.121.016.243.024.362.035.117-.602-.218-1.268-.775-1.565-.39-.21-.815-.254-1.244-.25-.858.009-1.703.113-2.517.412-.043.015-.088.024-.172.046m-8.691 4.759c.13.071.214.116.298.164a5 5 0 0 0 3.182.62c.088-.012.175-.032.26-.054.312-.083.563-.226.62-.582.06-.382-.028-.707-.38-.905a4.694 4.694 0 0 0-.752-.332c-.426-.148-.866-.257-1.29-.412a6.666 6.666 0 0 1-1.017-.457c-.743-.426-1.136-1.077-1.193-1.931-.092-1.396.583-2.488 1.91-2.964 1.47-.526 2.901-.365 4.275.354.026.013.046.037.076.063v1.726c-.106-.041-.193-.075-.28-.107-.935-.337-1.893-.435-2.873-.253a1.387 1.387 0 0 0-.413.149c-.458.254-.496.802-.07 1.103.165.117.358.205.551.27.39.133.793.23 1.183.365.36.124.725.252 1.064.424.988.501 1.483 1.329 1.558 2.414.033.482 0 .954-.207 1.401-.292.631-.777 1.066-1.399 1.366a4.139 4.139 0 0 1-1.473.391c-1.192.098-2.331-.101-3.403-.642-.078-.039-.15-.087-.227-.131v-2.04zm-30.734-5.197H45V8.928h1.54c.012-.512.005-.997.006-1.481V6h2.237c.007.964-.002 1.925.005 2.916h2.193c.034.69.012 1.35.016 2.04h-2.189c-.009.112-.022.198-.022.284 0 1.527-.002 3.054.002 4.581 0 .159.018.32.044.476.055.33.243.532.552.602.44.1.878.077 1.312-.047l.287-.078v1.92c-.273.154-.576.216-.881.26-.547.08-1.091.063-1.622-.109-1.023-.333-1.62-1.087-1.836-2.18a5.92 5.92 0 0 1-.093-1.1c-.01-1.407-.005-2.814-.005-4.222v-.377zM73 9h2v9.997c-.67.005-1.328.003-2 0V9zM43.963 19h-1.916c-.05-.233-.066-9.577-.018-10h1.923c.054.206.069 9.627.01 10M44 6.029v1.913c-.181.06-1.563.08-1.955.03-.047-.191-.062-1.498-.022-1.921.172-.053 1.563-.071 1.977-.022M73 8h2V6h-2z" fill="#01ACEC"/><path d="M9.526 13.604v.304c0 .69-.004 1.379.003 2.068a.91.91 0 0 1-.135.502c-.281.465-.564.93-.822 1.408a1.151 1.151 0 0 0 .477 1.557c.55.3 1.25.13 1.58-.4.25-.404.247-.823.012-1.234a79.93 79.93 0 0 0-.795-1.355.824.824 0 0 1-.127-.446c.006-.719.002-1.438.004-2.157 0-.086.011-.172.016-.237.247-.093.485-.149.686-.267.21-.123.382-.306.583-.473.03.013.076.031.119.054 1.051.567 2.102 1.136 3.155 1.7.132.07.21.171.275.297.259.5.511 1.003.788 1.493.285.506.873.715 1.418.533.536-.18.867-.716.79-1.281-.077-.552-.546-.97-1.132-1a66.61 66.61 0 0 0-1.527-.065 1.034 1.034 0 0 1-.483-.13c-1.04-.567-2.083-1.129-3.124-1.694-.068-.036-.13-.081-.206-.13.18-.44.168-.873.004-1.31.058-.039.105-.074.156-.102 1.077-.584 2.152-1.169 3.233-1.745a.918.918 0 0 1 .37-.089c.528-.03 1.057-.043 1.586-.075.609-.037 1.086-.496 1.128-1.069a1.166 1.166 0 0 0-.92-1.246c-.526-.125-1.05.115-1.329.624-.25.459-.494.923-.73 1.39a.813.813 0 0 1-.36.373c-1.01.54-2.015 1.089-3.022 1.633-.068.037-.14.066-.233.109-.296-.428-.717-.65-1.242-.729v-.31c0-.502.031-1.007-.008-1.506a2.31 2.31 0 0 1 .435-1.58c.21-.297.39-.62.55-.947.302-.612-.007-1.341-.65-1.584a1.183 1.183 0 0 0-1.557.752c-.101.327-.063.642.112.94.27.46.536.922.81 1.38a.77.77 0 0 1 .114.418c-.005.73-.001 1.458-.002 2.187 0 .077-.009.155-.012.209-.266.11-.522.192-.756.317-.25.134-.427.352-.554.605-.122.243-.18.5-.17.77.03.756.48 1.23 1.492 1.538m.97.84c-.027.724.194 1.345.689 1.868.108.116.231.218.341.332a2.55 2.55 0 0 1 .239 3.263 2.629 2.629 0 0 1-3.17.88 2.14 2.14 0 0 1-.488-.33c-.153-.125-.28-.281-.428-.413-.61-.542-.737-1.24-.643-1.995.08-.64.4-1.165.888-1.596.605-.533.862-1.21.825-2.001-1.122-.494-1.768-1.312-1.733-2.532.033-1.136.656-1.909 1.728-2.366.049-.787-.205-1.464-.808-1.996a2.67 2.67 0 0 1-.902-1.59c-.25-1.45.907-2.868 2.396-2.962 1.36-.087 2.53.824 2.762 2.08.175.941-.096 1.759-.813 2.41-.475.432-.775.946-.863 1.577-.02.153-.02.31-.028.47.468.182.924.193 1.373.072 1.007-.27 1.679-.89 1.925-1.904.162-.667.49-1.213 1.042-1.64.829-.641 2.718-.716 3.657.547.535.72.658 2.158.054 3.01a2.677 2.677 0 0 1-2.799 1.03c-.203-.05-.405-.109-.61-.143-1.048-.177-2.152.351-2.668 1.258-.089.155-.092.278-.004.435.549.985 1.822 1.592 3.031 1.203.538-.173 1.075-.204 1.62-.048 1.18.336 1.978 1.467 1.883 2.67a2.6 2.6 0 0 1-2.322 2.37c-1.3.139-2.473-.644-2.821-1.885-.03-.104-.05-.211-.078-.315-.357-1.301-1.726-2.127-3.037-1.832-.076.017-.15.046-.237.074" fill="#FFF"/><path d="M9.41 14.084c-.955-.304-1.381-.771-1.409-1.518-.01-.268.045-.522.16-.762.12-.25.288-.465.524-.598.22-.123.463-.205.714-.313.003-.053.01-.13.01-.206.002-.72-.001-1.44.003-2.16a.788.788 0 0 0-.108-.414c-.259-.452-.51-.91-.765-1.364a1.16 1.16 0 0 1-.105-.928c.19-.647.86-.984 1.47-.743.607.24.899.96.614 1.565a7.021 7.021 0 0 1-.52.936 2.36 2.36 0 0 0-.41 1.56c.037.493.007.992.007 1.488v.307c.496.078.894.298 1.173.72.088-.042.156-.07.22-.107.951-.538 1.9-1.08 2.853-1.614a.788.788 0 0 0 .342-.368c.221-.462.451-.92.688-1.374.264-.503.758-.74 1.256-.616.558.138.91.637.868 1.23-.04.567-.49 1.02-1.066 1.057-.499.032-.999.043-1.498.074a.836.836 0 0 0-.349.088c-1.02.57-2.036 1.147-3.052 1.724-.049.027-.093.063-.148.101.155.432.166.86-.004 1.295.071.047.13.092.195.128.983.558 1.968 1.113 2.95 1.673.145.083.29.125.456.13.481.013.962.038 1.442.064.553.03.997.442 1.068.987.074.559-.239 1.088-.745 1.266a1.091 1.091 0 0 1-1.34-.526c-.26-.485-.499-.982-.743-1.476a.63.63 0 0 0-.26-.294c-.995-.556-1.986-1.119-2.98-1.679-.04-.023-.083-.04-.111-.053-.19.165-.353.345-.551.467-.19.117-.415.172-.648.263-.004.065-.015.15-.015.235-.002.71.002 1.421-.003 2.132a.842.842 0 0 0 .119.44c.254.443.505.89.75 1.339.223.406.226.82-.011 1.22-.31.522-.971.691-1.491.394a1.164 1.164 0 0 1-.45-1.538c.243-.472.51-.932.775-1.391a.932.932 0 0 0 .128-.496c-.007-.681-.003-1.363-.003-2.044v-.3z" fill="#1996C2"/><path d="M95 18.817v-1.451h1.578v1.45H95zm2.244-2.811c0-.972.24-1.716.721-2.232.48-.516 1.169-.774 2.065-.774a4.67 4.67 0 0 1 1.702.324v1.167a3.912 3.912 0 0 0-1.465-.278c-.543 0-.946.122-1.209.367-.263.244-.395.72-.395 1.426 0 .698.132 1.171.395 1.42.263.249.666.373 1.209.373.488 0 .976-.097 1.465-.29v1.167a4.67 4.67 0 0 1-1.702.324c-.896 0-1.584-.258-2.065-.774-.48-.516-.721-1.256-.721-2.22zm5.33-.006c0-.966.24-1.707.724-2.224.484-.517 1.177-.776 2.08-.776s1.596.259 2.08.776c.483.517.725 1.258.725 2.224 0 .966-.242 1.707-.725 2.224-.484.517-1.177.776-2.08.776s-1.596-.259-2.08-.776c-.483-.517-.725-1.258-.725-2.224zm1.402.003c0 .748.115 1.253.345 1.514.23.261.584.392 1.06.392.476 0 .829-.13 1.057-.392.228-.261.342-.766.342-1.514s-.114-1.254-.342-1.517c-.228-.263-.58-.395-1.057-.395-.476 0-.83.132-1.06.395-.23.263-.345.769-.345 1.517zM109.024 19v-5.341c.886-.44 1.757-.659 2.612-.659h.023c.648 0 1.189.145 1.622.434.742-.29 1.46-.434 2.155-.434.808 0 1.437.217 1.888.65.45.434.676 1.034.676 1.8V19h-1.434v-3.647c0-.378-.097-.663-.29-.856-.193-.193-.554-.289-1.08-.289a5.44 5.44 0 0 0-1.224.139c.168.189.252.557.252 1.104V19H112.8v-3.682c0-.362-.095-.634-.284-.815-.19-.181-.544-.272-1.063-.272-.343 0-.675.031-.995.093V19h-1.435z" fill="#01ACEC"/></g></svg>