<?xml version="1.0" encoding="iso-8859-1"?>
<!-- Generator: Adobe Illustrator 19.0.0, SVG Export Plug-In . SVG Version: 6.00 Build 0)  -->
<svg version="1.1" id="Layer_1" xmlns="http://www.w3.org/2000/svg" xmlns:xlink="http://www.w3.org/1999/xlink" x="0px" y="0px"
	 viewBox="0 0 484.8 484.8" style="enable-background:new 0 0 484.8 484.8;" xml:space="preserve">
<path style="fill:#5FD6D6;" d="M195.2,213.6c3.2-3.2,5.6-8,5.6-13.6s-2.4-10.4-6.4-13.6c4-3.2,6.4-8,6.4-13.6s-2.4-10.4-6.4-13.6
	c4-3.2,6.4-8,6.4-13.6s-2.4-11.2-7.2-14.4c5.6-5.6,8.8-13.6,8.8-26.4c0-36-26.4-60-60-60c-32.8,0-60,23.2-60,60
	c0,12.8,3.2,20.8,8.8,26.4c-4,3.2-7.2,8.8-7.2,14.4c0,5.6,2.4,10.4,6.4,13.6c-4,3.2-6.4,8-6.4,13.6s2.4,10.4,6.4,13.6
	c-4,3.2-6.4,8-6.4,13.6s2.4,9.6,5.6,13.6c-4,2.4-6.4,7.2-6.4,14.4v107.2c0,16.8,13.6,12.8,30.4,12.8h57.6c16.8,0,30.4,4,30.4-12.8
	V228C201.6,220.8,199.2,216.8,195.2,213.6z"/>
<path style="fill:#42BEC1;" d="M171.2,348c16.8,0,30.4,4,30.4-12.8V228c0-7.2-2.4-11.2-6.4-14.4c3.2-3.2,5.6-8,5.6-13.6
	s-2.4-10.4-6.4-13.6c4-3.2,6.4-8,6.4-13.6s-2.4-10.4-6.4-13.6c4-3.2,6.4-8,6.4-13.6s-2.4-11.2-7.2-14.4c5.6-5.6,8.8-13.6,8.8-26.4
	c0-36-26.4-60-60-60c-16.8,0-31.2,5.6-42.4,16"/>
<rect x="120" y="35.2" style="fill:#00637A;" width="45.6" height="14.4"/>
<path style="fill:#00669E;" d="M176.8,34.4c0,5.6-4.8,4.8-10.4,4.8H120c-5.6,0-10.4,0.8-10.4-4.8v-24C109.6,4.8,114.4,0,120,0h46.4
	c5.6,0,10.4,4.8,10.4,10.4V34.4z"/>
<path style="fill:#004F77;" d="M120,0h46.4c5.6,0,10.4,4.8,10.4,10.4v24c0,5.6-4.8,4.8-10.4,4.8"/>
<path id="SVGCleanerId_0" style="fill:#2D9EAA;" d="M130.4,52.8c4-2.4,8-4,12.8-4s8.8,1.6,12.8,4c3.2-2.4,7.2-3.2,12-3.2
	c-7.2-3.2-16-4.8-24.8-4.8s-16.8,1.6-24.8,4.8C122.4,49.6,126.4,51.2,130.4,52.8z"/>
<path style="fill:#5FD6D6;" d="M202.4,100c-2.4,0.8-4.8,1.6-8,1.6c-4.8,0-8.8-1.6-12.8-3.2c-4,2.4-8,3.2-12.8,3.2S160,100,156,98.4
	c-4,2.4-8,3.2-12.8,3.2s-8.8-1.6-12.8-3.2c-4,2.4-8,3.2-12.8,3.2s-8.8-1.6-12.8-3.2c-4,2.4-8,3.2-12.8,3.2c-2.4,0-5.6-0.8-8-1.6
	c0,1.6,0,3.2,0,4.8c0,12.8,3.2,20.8,8.8,26.4c-4,3.2-7.2,8.8-7.2,14.4c0,5.6,2.4,10.4,6.4,13.6c-4,3.2-6.4,8-6.4,13.6
	s2.4,10.4,6.4,13.6c-4,3.2-6.4,8-6.4,13.6s2.4,9.6,5.6,13.6c-4,2.4-6.4,7.2-6.4,14.4v107.2c0,16.8,13.6,12.8,30.4,12.8h56
	c16.8,0,30.4,4,30.4-12.8V228c0-7.2-2.4-11.2-6.4-14.4c3.2-3.2,5.6-8,5.6-13.6s-2.4-10.4-6.4-13.6c4-3.2,6.4-8,6.4-13.6
	s-2.4-10.4-6.4-13.6c4-3.2,6.4-8,6.4-13.6s-2.4-11.2-7.2-14.4c5.6-5.6,8.8-13.6,8.8-26.4C202.4,103.2,202.4,101.6,202.4,100z"/>
<g>
	<path id="SVGCleanerId_0_1_" style="fill:#2D9EAA;" d="M130.4,52.8c4-2.4,8-4,12.8-4s8.8,1.6,12.8,4c3.2-2.4,7.2-3.2,12-3.2
		c-7.2-3.2-16-4.8-24.8-4.8s-16.8,1.6-24.8,4.8C122.4,49.6,126.4,51.2,130.4,52.8z"/>
</g>
<path style="fill:#2D9EAA;" d="M202.4,105.6c-2.4,0.8-4.8,1.6-8,1.6c-4.8,0-8.8-1.6-12.8-4c-4,2.4-8,4-12.8,4s-8.8-1.6-12.8-4
	c-4,2.4-8,4-12.8,4s-8.8-1.6-12.8-4c-4,2.4-8,4-12.8,4s-8.8-1.6-12.8-4c-4,2.4-8,4-12.8,4c-2.4,0-5.6-0.8-8-1.6c0,1.6,0,3.2,0,4.8
	c0,12.8,3.2,15.2,8.8,20.8c-4,3.2-7.2,8.8-7.2,14.4c0,5.6,2.4,10.4,6.4,13.6c-4,3.2-6.4,8-6.4,13.6s2.4,10.4,6.4,13.6
	c-4,3.2-6.4,8-6.4,13.6s2.4,9.6,5.6,13.6c-4,2.4-6.4,7.2-6.4,14.4v107.2c0,16.8,13.6,12.8,30.4,12.8h56c16.8,0,30.4,4,30.4-12.8V228
	c0-7.2-2.4-11.2-6.4-14.4c3.2-3.2,5.6-8,5.6-13.6s-2.4-10.4-6.4-13.6c4-3.2,6.4-8,6.4-13.6s-2.4-10.4-6.4-13.6c4-3.2,6.4-8,6.4-13.6
	s-2.4-11.2-7.2-14.4c5.6-5.6,8.8-8,8.8-20.8C202.4,108.8,202.4,107.2,202.4,105.6z"/>
<g>
	<ellipse style="fill:#42BEC1;" cx="93.6" cy="144" rx="4" ry="8"/>
	<ellipse style="fill:#42BEC1;" cx="93.6" cy="172.8" rx="4" ry="8"/>
	<ellipse style="fill:#42BEC1;" cx="93.6" cy="201.6" rx="4" ry="8"/>
	<path style="fill:#42BEC1;" d="M98.4,332.8c0,2.4-2.4,4.8-4.8,4.8l0,0c-2.4,0-4.8-2.4-4.8-4.8V226.4c0-2.4,2.4-4.8,4.8-4.8l0,0
		c2.4,0,4.8,2.4,4.8,4.8V332.8z"/>
</g>
<ellipse transform="matrix(-0.3633 0.9317 -0.9317 -0.3633 203.7869 22.8391)" style="fill:#91EDEA;" cx="94.089" cy="81.054" rx="13.6" ry="4"/>
<rect x="108.8" y="25.6" style="fill:#168FC4;" width="68" height="4.8"/>
<g>
	<path style="fill:#42BEC1;" d="M186.4,132c0,0.8-0.8,1.6-1.6,1.6h-84c-0.8,0-1.6-0.8-1.6-1.6l0,0c0-0.8,0.8-1.6,1.6-1.6h84.8
		C186.4,130.4,186.4,131.2,186.4,132L186.4,132z"/>
	<path style="fill:#42BEC1;" d="M186.4,160c0,0.8-0.8,1.6-1.6,1.6h-84c-0.8,0-1.6-0.8-1.6-1.6l0,0c0-0.8,0.8-1.6,1.6-1.6h84.8
		C186.4,158.4,186.4,159.2,186.4,160L186.4,160z"/>
	<path style="fill:#42BEC1;" d="M186.4,187.2c0,0.8-0.8,1.6-1.6,1.6h-84c-0.8,0-1.6-0.8-1.6-1.6l0,0c0-0.8,0.8-1.6,1.6-1.6h84.8
		C186.4,185.6,186.4,186.4,186.4,187.2L186.4,187.2z"/>
	<path style="fill:#42BEC1;" d="M186.4,215.2c0,0.8-0.8,1.6-1.6,1.6h-84c-0.8,0-1.6-0.8-1.6-1.6l0,0c0-0.8,0.8-1.6,1.6-1.6h84.8
		C186.4,213.6,186.4,214.4,186.4,215.2L186.4,215.2z"/>
</g>
<g>
	<path style="fill:#5FD6D6;" d="M102.4,286.4c-1.6,0-3.2-1.6-3.2-3.2c0-18.4,15.2-33.6,33.6-33.6c1.6,0,3.2,1.6,3.2,3.2
		s-1.6,3.2-3.2,3.2c-14.4,0-26.4,12-26.4,26.4C105.6,284.8,104,286.4,102.4,286.4z"/>
	<path style="fill:#5FD6D6;" d="M160.8,219.2c1.6,0,3.2,1.6,3.2,3.2c0,18.4-15.2,33.6-33.6,33.6c-1.6,0-3.2-1.6-3.2-3.2
		s1.6-3.2,3.2-3.2c14.4,0,26.4-12,26.4-26.4C157.6,220.8,159.2,219.2,160.8,219.2z"/>
	<path style="fill:#5FD6D6;" d="M113.6,302.4c-1.6,0-3.2-1.6-3.2-3.2c0-18.4,15.2-33.6,33.6-33.6c1.6,0,3.2,1.6,3.2,3.2
		s-1.6,3.2-3.2,3.2c-14.4,0-26.4,12-26.4,26.4C116.8,300.8,115.2,302.4,113.6,302.4z"/>
	<path style="fill:#5FD6D6;" d="M172,235.2c1.6,0,3.2,1.6,3.2,3.2c0,18.4-15.2,33.6-33.6,33.6c-1.6,0-3.2-1.6-3.2-3.2
		s1.6-3.2,3.2-3.2c14.4,0,26.4-12,26.4-26.4C168.8,236.8,170.4,235.2,172,235.2z"/>
	<path style="fill:#5FD6D6;" d="M124.8,317.6c-1.6,0-3.2-1.6-3.2-3.2c0-18.4,15.2-33.6,33.6-33.6c1.6,0,3.2,1.6,3.2,3.2
		s-1.6,3.2-3.2,3.2c-14.4,0-26.4,12-26.4,26.4C128,316,126.4,317.6,124.8,317.6z"/>
	<path style="fill:#5FD6D6;" d="M183.2,251.2c1.6,0,3.2,1.6,3.2,3.2c0,18.4-15.2,33.6-33.6,33.6c-1.6,0-3.2-1.6-3.2-3.2
		s1.6-3.2,3.2-3.2c14.4,0,26.4-12,26.4-26.4C180,252.8,181.6,251.2,183.2,251.2z"/>
</g>
<path style="fill:#0579AD;" d="M171.2,6.4c0,1.6-1.6,3.2-3.2,3.2h-48.8c-1.6,0-3.2-1.6-3.2-3.2l0,0c0-1.6,1.6-3.2,3.2-3.2H168
	C169.6,3.2,171.2,4.8,171.2,6.4L171.2,6.4z"/>
<path style="fill:#C92B00;" d="M341.6,227.2c-32.8,32.8-84,24.8-120-11.2s-44.8-87.2-11.2-120c32.8-32.8,75.2-16.8,112,20
	C357.6,152,374.4,194.4,341.6,227.2z"/>
<path style="fill:#A01C02;" d="M321.6,116c36,36,52.8,78.4,20,112c-32.8,32.8-84,24.8-120-11.2"/>
<g>
	
		<ellipse transform="matrix(0.2623 -0.965 0.965 0.2623 98.8709 324.491)" style="fill:#EF4220;" cx="261.668" cy="97.579" rx="9.6" ry="25.6"/>
	<ellipse style="fill:#EF4220;" cx="224.673" cy="102.496" rx="5.6" ry="5.6"/>
</g>
<path style="fill:#5EA304;" d="M347.2,146.4c-4.8,4.8-20.8-4.8-36-20s-24-32-20-36c4.8-4.8,20.8,4.8,36,20S351.2,141.6,347.2,146.4z
	"/>
<path style="fill:#388C02;" d="M346.4,140.8c-3.2,3.2-16.8-5.6-30.4-19.2c-13.6-13.6-22.4-27.2-19.2-30.4
	c3.2-3.2,16.8,5.6,30.4,19.2S349.6,137.6,346.4,140.8z"/>
<polygon style="fill:#5EA304;" points="300.8,114.4 300.8,136.8 322.4,136.8 "/>
<polygon style="fill:#388C02;" points="309.6,124 300.8,136.8 322.4,136.8 "/>
<polygon style="fill:#5EA304;" points="290.4,91.2 284,109.6 302.4,115.2 "/>
<g>
	<polygon style="fill:#388C02;" points="295.2,101.6 284,109.6 302.4,115.2 	"/>
	<polygon style="fill:#388C02;" points="346.4,147.2 328,152.8 322.4,135.2 	"/>
</g>
<polygon style="fill:#5EA304;" points="336,142.4 328,152.8 322.4,135.2 "/>
<polygon style="fill:#388C02;" points="328.8,119.2 318.4,108.8 337.6,93.6 343.2,100 "/>
<polyline style="fill:#036D2E;" points="337.6,93.6 343.2,100 328.8,119.2 "/>
<g>
	<path style="fill:#5EA304;" d="M343.2,100c-0.8,0.8-2.4-0.8-4-2.4s-2.4-3.2-2.4-4c0.8-0.8,2.4,0.8,4,2.4
		C343.2,97.6,344,99.2,343.2,100z"/>
	
		<ellipse transform="matrix(0.591 -0.8066 0.8066 0.591 45.28 290.7774)" style="fill:#5EA304;" cx="309.405" cy="100.733" rx="2.4" ry="8.799"/>
</g>
<path style="fill:#EABC49;" d="M340,37.6c32,87.2-28,196-140,247.2c-5.6,2.4-11.2,4.8-16.8,7.2c39.2,19.2,86.4,20.8,128.8,1.6
	c75.2-35.2,108-124,72.8-199.2C374.4,71.2,359.2,52,340,37.6z"/>
<path style="fill:#FFDC6C;" d="M184.8,292.8C371.2,283.2,391.2,131.2,351.2,48c-4-3.2-8-7.2-12-9.6c32,87.2-28,196-140,247.2
	c-5.6,2.4-11.2,4.8-16.8,7.2"/>
<path style="fill:#FCF7C5;" d="M185.6,292.8c136.8-43.2,192-159.2,164-247.2c-3.2-2.4-6.4-5.6-9.6-8c32,87.2-28,196-140,247.2
	c-5.6,2.4-11.2,4.8-16.8,7.2"/>
<path style="fill:#562300;" d="M348.8,44.8L344,36c-1.6-1.6-4-2.4-5.6-1.6c-1.6,0.8-2.4,3.2-1.6,4.8l4.8,8.8
	c-1.6,2.4-2.4,6.4-0.8,9.6l6.4,8.8l14.4-8.8l-5.6-8.8C355.2,45.6,352,44,348.8,44.8z"/>
<path style="fill:#281000;" d="M353.6,62.4l8.8-4.8l-5.6-8.8c-1.6-3.2-4.8-4.8-8-4L344,36c-1.6-1.6-4-2.4-5.6-1.6"/>
<g>
	<path style="fill:#8C4719;" d="M342.4,52.8c0,1.6,0,3.2,0.8,3.2s0.8-1.6,0.8-3.2s0-3.2-0.8-3.2C343.2,48.8,342.4,50.4,342.4,52.8z"
		/>
	<path style="fill:#8C4719;" d="M204,283.2c-1.6,0.8-2.4,1.6-4,1.6c-5.6,2.4-11.2,4.8-16.8,7.2c6.4,3.2,12.8,5.6,20,8
		C204.8,295.2,205.6,289.6,204,283.2z"/>
</g>
<path style="fill:#281000;" d="M183.2,292.8c6.4,3.2,12.8,5.6,20,8c0.8-3.2,1.6-6.4,1.6-9.6"/>
<path style="fill:#CE921B;" d="M364.8,171.2L345.6,224l32,12c9.6-16,16.8-33.6,20-52.8L364.8,171.2z"/>
<circle style="fill:#3CBC0C;" cx="353.6" cy="196.8" r="28"/>
<path style="fill:#2B9907;" d="M363.2,170.4c14.4,5.6,21.6,21.6,16.8,36c-5.6,14.4-21.6,22.4-36,16.8"/>
<circle style="fill:#017C1B;" cx="353.6" cy="196.8" r="17.6"/>
<path style="fill:#006B12;" d="M336.8,190.4c3.2-8.8,13.6-13.6,22.4-10.4c8.8,3.2,13.6,13.6,10.4,22.4"/>
<polygon style="fill:#FFE000;" points="348.8,187.2 355.2,192 362.4,189.6 360,196.8 364,203.2 356,203.2 351.2,209.6 349.6,201.6 
	342.4,199.2 348.8,195.2 "/>
<polyline style="fill:#FFC200;" points="355.2,192 362.4,189.6 360,196.8 364,203.2 356,203.2 351.2,209.6 "/>
<path style="fill:#E8B18B;" d="M401.6,150.4l-8.8-8.8c-2.4-2.4-6.4-2.4-9.6,0l-16,16l-16-16c-2.4-2.4-6.4-2.4-9.6,0l-16,16l-16-16
	c-2.4-2.4-6.4-2.4-9.6,0l-16,16l-16-16c-2.4-2.4-6.4-2.4-9.6,0l-16,16l-16-16c-2.4-2.4-6.4-2.4-9.6,0l-16,16l-16-16
	c-2.4-2.4-6.4-2.4-9.6,0l-16,16l-16-16c-2.4-2.4-6.4-2.4-9.6,0l-16,16l-16-16c-2.4-2.4-6.4-2.4-9.6,0l-8.8,8.8
	c-1.6,1.6-1.6,3.2-1.6,4.8v300c0,16.8,13.6,29.6,29.6,29.6h260c16.8,0,29.6-13.6,29.6-29.6v-300C403.2,153.6,402.4,152,401.6,150.4z
	"/>
<g>
	<path style="fill:#E09B77;" d="M400,468c2.4-4,3.2-8.8,3.2-13.6V155.2c0-1.6-0.8-3.2-1.6-4.8l-8.8-8.8c-2.4-2.4-6.4-2.4-9.6,0
		l-16,16l-16-16c-2.4-2.4-6.4-2.4-9.6,0l-16,16l-16-16c-2.4-2.4-6.4-2.4-9.6,0l-16,16l-16-16c-2.4-2.4-6.4-2.4-9.6,0l-16,16l-16-16
		c-2.4-2.4-6.4-2.4-9.6,0l-16,16l-16-16c-2.4-2.4-6.4-2.4-9.6,0l-16,16l-16-16c-2.4-2.4-6.4-2.4-9.6,0l-16,16l-16-16
		c-2.4-2.4-6.4-2.4-9.6,0l-8.8,8.8c-0.8,0.8-0.8,0.8-1.6,1.6L400,468z"/>
	<path style="fill:#E09B77;" d="M85.6,467.2c4.8,10.4,15.2,17.6,27.2,17.6h260c12,0,22.4-7.2,27.2-17.6H85.6z"/>
</g>
<g>
</g>
<g>
</g>
<g>
</g>
<g>
</g>
<g>
</g>
<g>
</g>
<g>
</g>
<g>
</g>
<g>
</g>
<g>
</g>
<g>
</g>
<g>
</g>
<g>
</g>
<g>
</g>
<g>
</g>
</svg>
