<?xml version="1.0" encoding="iso-8859-1"?>
<!-- Generator: Adobe Illustrator 19.0.0, SVG Export Plug-In . SVG Version: 6.00 Build 0)  -->
<svg version="1.1" id="Layer_1" xmlns="http://www.w3.org/2000/svg" xmlns:xlink="http://www.w3.org/1999/xlink" x="0px" y="0px"
	 viewBox="0 0 512 512" style="enable-background:new 0 0 512 512;" xml:space="preserve">
<path style="fill:#A4A9AD;" d="M414.198,357.908c0-3.645-2.983-6.628-6.628-6.628H123.458c-3.645,0-6.628,2.983-6.628,6.628v135.015
	c0,3.645,2.983,6.628,6.628,6.628h284.113c3.645,0,6.628-2.983,6.628-6.628V357.908H414.198z"/>
<rect x="147.31" y="351.281" style="opacity:0.2;enable-background:new    ;" width="236.404" height="135.822"/>
<g>
	<path style="fill:#00B3E3;" d="M148.22,165.317c-18.211,0-34.804,6.921-47.294,18.275c-6.644-2.755-13.925-4.283-21.565-4.283
		c-28.944,0-52.79,21.825-55.977,49.917c-0.24,2.108-0.714,6.423,5.362,6.423c5.436,0,153.08,0,184.116,0
		c3.653,0,5.575-4.665,5.351-6.952C214.722,193.115,184.717,165.317,148.22,165.317z"/>
	<path style="fill:#00B3E3;" d="M363.779,17.193c18.211,0,34.804,6.921,47.295,18.275c6.644-2.755,13.925-4.283,21.565-4.283
		c28.944,0,52.79,21.825,55.977,49.917c0.24,2.108,0.714,6.423-5.362,6.423c-5.436,0-153.08,0-184.116,0
		c-3.653,0-5.575-4.665-5.351-6.952C297.277,44.992,327.281,17.193,363.779,17.193z"/>
</g>
<path style="fill:#A4A9AD;" d="M268.524,97.127c-4.576,0-8.285-3.708-8.285-8.285V8.285c0-4.576,3.71-8.285,8.285-8.285
	s8.285,3.71,8.285,8.285v80.556C276.81,93.417,273.101,97.127,268.524,97.127z"/>
<rect x="260.243" y="70.366" style="opacity:0.2;enable-background:new    ;" width="16.57" height="18.476"/>
<path style="fill:#333E48;" d="M318.502,86.946c0-3.645-2.983-6.628-6.628-6.628H225.18c-3.645,0-6.628,2.983-6.628,6.628v18.833
	c0,3.645,2.983,6.628,6.628,6.628h86.694c3.645,0,6.628-2.983,6.628-6.628V86.946z"/>
<rect x="218.552" y="98.572" style="opacity:0.2;enable-background:new    ;" width="99.952" height="13.835"/>
<path style="fill:#A4A9AD;" d="M340.082,115.606c0-3.645-2.983-6.628-6.628-6.628H197.582c-3.645,0-6.628,2.983-6.628,6.628v144.011
	c0,3.645,2.983,6.628,6.628,6.628h135.871c3.645,0,6.628-2.983,6.628-6.628V115.606z"/>
<rect x="190.956" y="240.668" style="opacity:0.2;enable-background:new    ;" width="149.133" height="25.574"/>
<path style="fill:#D1D3D3;" d="M365.621,487.102V264.419c0-3.645-2.983-6.628-6.628-6.628h-186.95c-3.645,0-6.628,2.983-6.628,6.628
	v222.684H365.621z"/>
<rect x="227.4" y="405.002" style="fill:#00B3E3;" width="76.235" height="82.09"/>
<g style="opacity:0.1;">
	<rect x="257.227" y="405.002" width="16.57" height="82.09"/>
</g>
<path style="fill:#333E48;" d="M479.951,507.538c0,2.454-2.006,4.462-4.462,4.462H55.546c-2.455,0-4.462-2.008-4.462-4.462v-15.971
	c0-2.456,2.007-4.464,4.462-4.464h419.945c2.456,0,4.462,2.008,4.462,4.464v15.971H479.951z"/>
<g style="opacity:0.1;">
	<rect x="165.416" y="308.982" width="200.203" height="16.57"/>
</g>
<g style="opacity:0.1;">
	<rect x="165.416" y="364.161" width="200.203" height="16.57"/>
</g>
<g style="opacity:0.1;">
	<rect x="190.956" y="188.571" width="149.133" height="16.57"/>
</g>
<g style="opacity:0.1;">
	<rect x="190.956" y="146.902" width="149.133" height="16.57"/>
</g>
<path style="fill:#D68231;" d="M195.922,487.102v-24.388c0-3.038-2.486-5.523-5.523-5.523H88.767c-3.038,0-5.523,2.486-5.523,5.523
	v24.388H195.922z"/>
<path style="fill:#218649;" d="M180.456,457.191c0-22.574-18.299-40.874-40.874-40.874s-40.874,18.299-40.874,40.874H180.456z"/>
<path style="opacity:0.2;enable-background:new    ;" d="M179.368,447.842H99.796c-0.704,3.005-1.087,6.132-1.087,9.35h81.747
	C180.456,453.973,180.072,450.845,179.368,447.842z"/>
<path style="fill:#D68231;" d="M335.105,487.102v-24.388c0-3.038,2.486-5.523,5.523-5.523H442.26c3.038,0,5.523,2.486,5.523,5.523
	v24.388H335.105z"/>
<path style="fill:#218649;" d="M350.571,457.191c0-22.574,18.299-40.874,40.874-40.874c22.574,0,40.874,18.299,40.874,40.874
	H350.571z"/>
<path style="opacity:0.2;enable-background:new    ;" d="M351.658,447.842h79.572c0.704,3.005,1.087,6.132,1.087,9.35H350.57
	C350.571,453.973,350.955,450.845,351.658,447.842z"/>
<g>
</g>
<g>
</g>
<g>
</g>
<g>
</g>
<g>
</g>
<g>
</g>
<g>
</g>
<g>
</g>
<g>
</g>
<g>
</g>
<g>
</g>
<g>
</g>
<g>
</g>
<g>
</g>
<g>
</g>
</svg>
