<?xml version="1.0" encoding="UTF-8"?>
<svg width="126px" height="98px" viewBox="0 0 126 98" version="1.1" xmlns="http://www.w3.org/2000/svg" xmlns:xlink="http://www.w3.org/1999/xlink">
    <!-- Generator: Sketch 48.1 (47250) - http://www.bohemiancoding.com/sketch -->
    <title>Group 7</title>
    <desc>Created with Sketch.</desc>
    <defs>
        <path d="M2.58312989,22.8690538 L41.619674,22.8690538 C43.4943947,22.8690538 44.2852466,24.1489068 43.3860912,25.7276856 L42.979075,26.4423435 C42.0799196,28.0211222 40.0742185,29.3009752 38.4992163,29.3009752 L5.7035876,29.3009752 C4.12858537,29.3009752 2.12288432,28.0211222 1.22372891,26.4423435 L0.816712683,25.7276856 C-0.0824427296,24.1489068 0.708409191,22.8690538 2.58312989,22.8690538 Z" id="path-1"></path>
        <rect id="path-2" x="4.99063915" y="13.5785007" width="34.2215256" height="11.4345269" rx="2.85"></rect>
        <rect id="path-3" x="4.99063915" y="0" width="34.2215256" height="11.4345269" rx="2.85"></rect>
        <rect id="path-4" x="4.99063915" y="9.29055312" width="34.2215256" height="6.43192139" rx="2.85"></rect>
        <path d="M2.57765126,10.0361145 C3.2382072,10.3662953 3.68606227,10.5313857 3.92121648,10.5313857 C4.15637029,10.5313857 4.60422427,10.3662958 5.26477841,10.0361161 L5.26478143,10.0361222 C6.14472917,9.59627801 7.21463188,9.95305246 7.65447603,10.8330002 C7.77808278,11.0802866 7.84243295,11.3529502 7.84243295,11.6294085 L7.84243295,21.8024618 C7.84243295,22.786219 7.04494016,23.5837118 6.06118295,23.5837118 L1.78125,23.5837118 C0.797492789,23.5837118 1.10449296e-12,22.786219 1.10437248e-12,21.8024618 L2.33310847e-05,11.6293858 C2.33310847e-05,10.6456415 0.797505675,9.84815911 1.78125,9.84815911 C2.05770587,9.84815911 2.33036706,9.91250875 2.57765126,10.0361145 Z" id="path-5"></path>
    </defs>
    <g id="desktop---FAQ-home" stroke="none" stroke-width="1" fill="none" fill-rule="evenodd" transform="translate(-275.000000, -451.000000)">
        <g id="section-2" transform="translate(202.000000, 383.000000)">
            <g id="Group-7" transform="translate(73.000000, 70.000000)">
                <g id="Group-6" transform="translate(6.416536, 25.013028)">
                    <g id="Group-5" transform="translate(29.943835, 0.714658)" fill="#FFD3D3" stroke="#FFD3D3" stroke-width="2.1375">
                        <polygon id="Path-41" stroke-linecap="round" stroke-linejoin="round" points="0 68.8762264 17.5273548 7.86123725 35.0547096 68.8762264"></polygon>
                        <ellipse id="Oval" cx="17.467237" cy="3.93061863" rx="3.92121648" ry="3.93061863"></ellipse>
                    </g>
                    <g id="Group-5-Copy" transform="translate(69.868948, 0.000000)" fill="#FFD3D3" stroke="#FFD3D3" stroke-width="2.1375">
                        <polygon id="Path-41" stroke-linecap="round" stroke-linejoin="round" points="0 68.8762264 17.5273548 7.86123725 35.0547096 68.8762264"></polygon>
                        <ellipse id="Oval" cx="17.467237" cy="3.93061863" rx="3.92121648" ry="3.93061863"></ellipse>
                    </g>
                    <g id="Group-2" transform="translate(16.397814, 0.000000)">
                        <polygon id="Path-41" fill="#FFFFFF" points="0.212082625 68.8762264 17.7394374 7.86123725 35.2667922 68.8762264"></polygon>
                        <g id="Group" transform="translate(1.425897, 25.013028)" fill="#FFD3D3">
                            <polygon id="Path-43" points="3.59148327 28.1177096 0.172997415 39.6425342 28.6894931 25.4711524 26.1653956 16.9831922"></polygon>
                            <polygon id="Path-42" points="9.90294694 5.31995032 6.73672446 16.8658066 23.9457706 8.54658819 21.5368262 0.0688992046"></polygon>
                            <polygon id="Path-44" points="14.1421426 43.4487637 31.4458486 34.0857913 33.6967015 43.4487637"></polygon>
                        </g>
                        <polygon id="Path-41" stroke="#FF5050" stroke-width="2.1375" stroke-linecap="round" stroke-linejoin="round" points="0.212082625 68.8762264 17.7394374 7.86123725 35.2667922 68.8762264"></polygon>
                        <path d="M11.9725488,30.1405874 L22.0720213,25.1660512" id="Line-2" stroke="#FF5050" stroke-width="2.1375" stroke-linecap="square"></path>
                        <path d="M5.36727688,52.9988404 L27.3137503,42.247317" id="Line-2-Copy-2" stroke="#FF5050" stroke-width="2.1375" stroke-linecap="square"></path>
                        <ellipse id="Oval" stroke="#FF5050" stroke-width="2.1375" fill="#FFD3D3" cx="17.467237" cy="3.93061863" rx="3.92121648" ry="3.93061863"></ellipse>
                        <path d="M8.66977824,41.6898131 L24.5735328,33.8992878" id="Line-2-Copy" stroke="#FF5050" stroke-width="2.1375" stroke-linecap="square"></path>
                        <path d="M2.13884535,64.7595221 L29.0616438,50.7407132" id="Line-2-Copy-3" stroke="#FF5050" stroke-width="2.1375" stroke-linecap="square"></path>
                        <path d="M14.1212677,68.47258 L32.1777158,59.240964" id="Line-2-Copy-4" stroke="#FF5050" stroke-width="2.1375" stroke-linecap="square"></path>
                    </g>
                    <g id="Group-3" transform="translate(53.471134, 40.735502)">
                        <g id="Rectangle-16">
                            <use fill="#FFFFFF" fill-rule="evenodd" xlink:href="#path-1"></use>
                            <path stroke="#FF5050" stroke-width="2.1375" d="M2.58312989,23.9378038 C1.5127299,23.9378038 1.26009897,24.346642 1.74540774,25.1987696 L2.15242397,25.9134276 C2.86921766,27.1720071 4.53072137,28.2322252 5.7035876,28.2322252 L38.4992163,28.2322252 C39.6720825,28.2322252 41.3335862,27.1720071 42.0503799,25.9134276 L42.4573962,25.1987696 C42.9427049,24.346642 42.690074,23.9378038 41.619674,23.9378038 L2.58312989,23.9378038 Z"></path>
                        </g>
                        <g id="Rectangle">
                            <use fill="#FFD3D3" fill-rule="evenodd" xlink:href="#path-2"></use>
                            <rect stroke="#FF5050" stroke-width="2.1375" x="6.05938915" y="14.6472507" width="32.0840256" height="9.29702691" rx="2.85"></rect>
                        </g>
                        <g id="Rectangle-Copy">
                            <use fill="#FFD3D3" fill-rule="evenodd" xlink:href="#path-3"></use>
                            <rect stroke="#FF5050" stroke-width="2.1375" x="6.05938915" y="1.06875" width="32.0840256" height="9.29702691" rx="2.85"></rect>
                        </g>
                        <g id="Rectangle-Copy-2">
                            <use fill="#FFFFFF" fill-rule="evenodd" xlink:href="#path-4"></use>
                            <rect stroke="#FF5050" stroke-width="2.1375" x="6.05938915" y="10.3593031" width="32.0840256" height="4.29442139" rx="2.14721069"></rect>
                        </g>
                    </g>
                    <g id="Group-4" transform="translate(72.007793, 19.295764)">
                        <g id="Rectangle-17">
                            <use fill="#FFFFFF" fill-rule="evenodd" xlink:href="#path-5"></use>
                            <path stroke="#FF5050" stroke-width="2.1375" d="M2.09980425,10.9920898 C2.00089251,10.9426485 1.89183018,10.9169091 1.78125,10.9169091 C1.38776,10.9169091 1.06877333,11.2358958 1.06877333,11.6293882 L1.06875,21.8024618 C1.06875,22.1959646 1.38774712,22.5149618 1.78125,22.5149618 L6.06118295,22.5149618 C6.45468583,22.5149618 6.77368295,22.1959646 6.77368295,21.8024618 L6.77368295,11.6294085 C6.77368295,11.5188258 6.74794303,11.409761 6.69850061,11.310847 C6.52256359,10.9588692 6.09460133,10.8161584 5.7426252,10.9920915 C4.93118021,11.3976944 4.38199977,11.6001357 3.92121648,11.6001357 C3.46043262,11.6001357 2.91125117,11.3976939 2.09980425,10.9920898 Z"></path>
                        </g>
                        <path d="M3.92121648,8.57589518 C5.29934342,8.57589518 6.41653605,7.45602379 6.41653605,6.07459242 C6.41653605,5.15363817 5.58476286,3.23305174 3.92121648,0.312833127 C2.25767009,3.23305174 1.4258969,5.15363817 1.4258969,6.07459242 C1.4258969,7.45602379 2.54308953,8.57589518 3.92121648,8.57589518 Z" id="Oval-2" stroke="#FF5050" stroke-width="2.1375" fill="#FFFFFF" stroke-linecap="round" stroke-linejoin="round"></path>
                    </g>
                </g>
                <path d="M35.3826254,9.38245006 C32.4294962,9.38245006 30.035512,11.7821745 30.035512,14.7423845" id="Oval-3" stroke="#FF5050" stroke-width="2.1375" stroke-linecap="round" transform="translate(32.709069, 12.062417) rotate(2.000000) translate(-32.709069, -12.062417) "></path>
                <path d="M123.832815,28.7229031 C120.879686,28.7229031 118.485702,31.1226275 118.485702,34.0828376" id="Oval-3-Copy" stroke="#FF5050" stroke-width="2.1375" stroke-linecap="round" transform="translate(121.159259, 31.402870) rotate(87.000000) translate(-121.159259, -31.402870) "></path>
                <path d="M75.1679636,14.2449455 C72.2148345,14.2449455 69.8208503,16.6446699 69.8208503,19.60488" id="Oval-3-Copy-2" stroke="#FF5050" stroke-width="2.1375" stroke-linecap="round" transform="translate(72.494407, 16.924913) rotate(73.000000) translate(-72.494407, -16.924913) "></path>
                <ellipse id="Oval-20" stroke="#FF5050" stroke-width="2.1375" cx="46.6981235" cy="3.21596069" rx="3.20826803" ry="3.21596069"></ellipse>
                <ellipse id="Oval-20-Copy" stroke="#FF5050" stroke-width="2.1375" cx="109.437587" cy="16.7944614" rx="3.20826803" ry="3.21596069"></ellipse>
                <ellipse id="Oval-20-Copy-2" stroke="#FF5050" stroke-width="2.1375" cx="13.1895463" cy="60.3885953" rx="3.20826803" ry="3.21596069"></ellipse>
                <polyline id="Path-68" stroke="#FFD3D3" stroke-width="2.1375" stroke-linecap="round" stroke-linejoin="round" points="75.5725357 6.43192139 77.4891086 9.40107145 79.4056814 6.43192139 81.2485702 9.40107145 83.2383027 6.43192139 85.1829333 9.40107145 86.7205969 6.43192139"></polyline>
                <polyline id="Path-68-Copy" stroke="#FFD3D3" stroke-width="2.1375" stroke-linecap="round" stroke-linejoin="round" transform="translate(4.884632, 47.263658) rotate(47.000000) translate(-4.884632, -47.263658) " points="-0.689398565 45.7790833 1.22717431 48.7482333 3.14374718 45.7790833 4.98663596 48.7482333 6.97636848 45.7790833 8.92099899 48.7482333 10.4586626 45.7790833"></polyline>
                <polyline id="Path-68-Copy-2" stroke="#FFD3D3" stroke-width="2.1375" stroke-linecap="round" stroke-linejoin="round" transform="translate(109.329868, 36.366094) rotate(-88.000000) translate(-109.329868, -36.366094) " points="103.755838 34.8815191 105.672411 37.8506691 107.588984 34.8815191 109.431872 37.8506691 111.421605 34.8815191 113.366235 37.8506691 114.903899 34.8815191"></polyline>
            </g>
        </g>
    </g>
</svg>