<?xml version="1.0" encoding="UTF-8"?>
<svg width="118px" height="25px" viewBox="0 0 118 25" version="1.1" xmlns="http://www.w3.org/2000/svg" xmlns:xlink="http://www.w3.org/1999/xlink">
    <!-- Generator: Sketch 46.2 (44496) - http://www.bohemiancoding.com/sketch -->
    <title>logo-kitabisa biru</title>
    <desc>Created with Sketch.</desc>
    <defs>
        <path d="M10.555503,15.0418588 C10.6441725,15.0135999 10.7180638,14.9838677 10.7947763,14.9665909 C12.1186386,14.6656534 13.5002703,15.5087338 13.8604565,16.8365017 C13.8894756,16.9431088 13.9096278,17.0521267 13.9393186,17.1587338 C14.2906379,18.4252963 15.4742411,19.2244481 16.7869525,19.0827517 C18.0453874,18.9469481 19.0319026,17.9286892 19.1310512,16.6631981 C19.2272442,15.4353409 18.4218297,14.2811445 17.2302999,13.9374838 C16.6794744,13.7783767 16.1380531,13.809582 15.594751,13.9866356 C14.3744708,14.3841356 13.0891664,13.7639124 12.5348477,12.7585106 C12.4465813,12.5981981 12.4496713,12.472707 12.5388782,12.3144034 C13.0602816,11.3885552 14.1741584,10.8492249 15.2320122,11.0297606 C15.4398481,11.0652517 15.6435192,11.1255195 15.8486682,11.1765463 C16.9180759,11.4418588 18.0547918,11.0072606 18.6735973,10.1241356 C19.2828641,9.25507309 19.1589956,7.78681416 18.6185147,7.05141237 C17.6713634,5.76275166 15.7642978,5.83882309 14.9273116,6.49333201 C14.3700373,6.92926951 14.0390046,7.48627844 13.8753691,8.16797487 C13.6269602,9.20337666 12.9486387,9.83659094 11.9328357,10.1118142 C11.4788748,10.2347606 11.0187339,10.2236445 10.5463674,10.037082 C10.555503,9.87422487 10.5537565,9.71444809 10.5752521,9.55761773 C10.6636529,8.91395701 10.9663383,8.38882309 11.4458253,7.94833201 C12.169422,7.28324273 12.4432226,6.4487338 12.2669584,5.48806416 C12.0318499,4.20596594 10.8518741,3.27583201 9.47830315,3.36409094 C7.97535541,3.46078737 6.80666474,4.90895701 7.06031321,6.38846594 C7.1718218,7.03828737 7.47719413,7.57065344 7.97051889,8.0115463 C8.57871094,8.55476059 8.8351807,9.24556416 8.78654683,10.0488677 C7.70397305,10.5158767 7.0752258,11.304582 7.04231061,12.4646713 C7.00657413,13.7096713 7.65842918,14.5451177 8.7915177,15.048957 C8.82832897,15.8572159 8.56917225,16.5476177 7.95802455,17.0924392 C7.46496849,17.5318588 7.14307139,18.0673052 7.06219407,18.7216802 C6.96694155,19.4921713 7.0960497,20.2045374 7.71149652,20.7581981 C7.86089117,20.8927963 7.98865583,21.0523052 8.14302134,21.1804749 C8.29577468,21.3071713 8.45658888,21.4380195 8.6363461,21.5163677 C9.77776418,22.0152517 11.1194947,21.6327517 11.8357023,20.6178409 C12.5617173,19.5892695 12.4617626,18.1976177 11.5944138,17.2874392 C11.483577,17.1707874 11.3594397,17.0663231 11.249812,16.9487338 C10.7508446,16.4142249 10.5271557,15.7808767 10.555503,15.0418588 Z M24.9540837,12.6441356 C24.9937163,19.0994927 19.7326602,24.950832 12.5833473,24.9492249 C5.49758073,24.9477517 0.155109996,19.2528409 0.162767815,12.5822606 C0.170694329,5.73315344 5.74558659,0.1946713 12.5926172,0.224403443 C19.5760108,0.2546713 25.0131967,5.9377963 24.9540837,12.6441356 Z" id="path-1"></path>
    </defs>
    <g id="Symbols" stroke="none" stroke-width="1" fill="none" fill-rule="evenodd">
        <g id="footer" transform="translate(-995.000000, -80.000000)">
            <g id="logo-kitabisa-biru">
                <g transform="translate(995.000000, 80.000000)">
                    <g id="Icon-Logo-Ktbs-Copy" transform="translate(94.000000, 13.000000)"></g>
                    <g id="Path-14">
                        <mask id="mask-2" fill="white">
                            <use xlink:href="#path-1"></use>
                        </mask>
                        <use id="Mask" fill="#01ACEC" xlink:href="#path-1"></use>
                        <polygon fill="#1996C2" mask="url(#mask-2)" points="11.3897363 4.02298851 15.1841443 7.29059573 18.7099895 7.08953613 25.5182987 13.8396719 24.1397884 22.4271971 17.2811155 25.1306197 11.9587936 25.5747126 11.1920459 25.1668933 7.76978377 20.9246911 8.06080261 18.4558812 9.07936856 16.467438 9.18853308 14.8391402 7.80898434 13.4484348 7.76978377 11.708466 8.85273212 10.6360617 9.32287942 9.4044421 8.82469462 8.11413691 7.75862069 5.80000822 8.70994857 4.59352104 10.069897 4.13828686 10.8731194 4.2806609"></polygon>
                    </g>
                    <path d="M33.6538175,13.3797413 C33.4943475,13.54889 33.3468905,13.7035737 33.2010177,13.8599515 C32.965905,14.1117198 32.7371289,14.3697433 32.4952836,14.6148655 C32.375021,14.7364493 32.3334373,14.8670248 32.3342294,15.0342187 C32.3395099,16.2277725 32.3370017,17.4213263 32.3370017,18.6148801 L32.3370017,18.9776767 L30,18.9776767 L30,6.02464034 L32.3261767,6.02464034 C32.329873,6.31876098 32.3347575,6.61731232 32.3366056,6.91586366 C32.3385858,7.20933272 32.3370017,7.50280179 32.3370017,7.79627085 L32.3370017,8.70612919 L32.3370017,9.61611785 L32.3370017,10.496525 L32.3370017,11.3988251 C32.3564074,11.4083381 32.3758131,11.4178511 32.3952188,11.4276247 C32.465845,11.3543877 32.5384514,11.2827146 32.6067014,11.2073926 C34.1060893,9.55187262 35.6071934,7.89791644 37.1001128,6.23679293 C37.2516621,6.06829582 37.4029475,5.99636202 37.6322516,6.00014115 C38.454684,6.01317264 39.2772484,6.00509312 40.0998128,6.00509312 L40.3787533,6.00509312 C40.3949908,6.03506553 40.4022514,6.04327537 40.4034395,6.05239741 C40.4050236,6.06125882 40.4027794,6.0724659 40.397895,6.08002416 C40.3821856,6.10452335 40.3670043,6.12993475 40.3472026,6.15117607 C38.6408204,7.99083093 36.9336462,9.83009484 35.227,11.6697497 C35.2209274,11.6765261 35.2196073,11.6874725 35.1982214,11.7397288 C37.1142381,14.1218844 39.0447759,16.5225447 41,18.9539594 C40.9119483,18.9729853 40.8599357,18.9937054 40.8081871,18.993966 C39.965689,18.9961814 39.1231908,18.9901869 38.2809567,18.9999605 C38.102345,19.0021758 38.0144253,18.9109554 37.920697,18.7910658 C36.7444735,17.2902296 35.5658738,15.7908268 34.3880661,14.2910331 C34.2060221,14.0592029 34.0249022,13.8264606 33.8416701,13.5954124 C33.7879413,13.5276486 33.7281401,13.4644459 33.6538175,13.3797413" id="Fill-3" fill="#01ACEC"></path>
                    <path d="M65.4676229,10.7186223 L65.4676229,11.0581895 C65.4676229,11.8950807 65.4674843,12.7314344 65.4676229,13.5683256 C65.4676229,14.3041664 65.4622196,15.0402759 65.4698396,15.7761167 C65.4759355,16.3497661 65.7139554,16.6646082 66.2822659,16.8067776 C66.5808298,16.881356 66.8960191,16.9195187 67.2045582,16.9263718 C68.4374678,16.9531126 69.0718642,16.456326 69.3263709,15.2836301 C69.5077259,14.4472764 69.5081416,13.6008445 69.4305565,12.7552189 C69.3928723,12.3433577 69.2875783,11.9418434 69.0876583,11.5688167 C68.8273327,11.0835865 68.4262457,10.7620256 67.8795482,10.6452533 C67.0848556,10.4755369 66.2929339,10.5591185 65.4676229,10.7186223 L65.4676229,10.7186223 Z M63.0000025,5 L65.4669301,5 L65.4669301,8.79315438 C65.9095806,8.74907919 66.3098363,8.70298836 66.7114775,8.67060384 C67.4010147,8.61510672 68.0852871,8.66791633 68.7529342,8.83951397 C70.2424287,9.22221567 71.225265,10.1437635 71.6611268,11.5670699 C72.1348112,13.1150767 72.1168004,14.6793431 71.5761989,16.2100155 C71.0188334,17.7873163 69.8443896,18.6846765 68.1515115,18.9289714 C67.1168594,19.0781283 66.0942607,19.0000561 65.1157192,18.62152 C63.9905974,18.1858743 63.2773691,17.3991052 63.0547277,16.2296344 C63.0098392,15.9932677 63.0026349,15.7480322 63.0024963,15.506828 C62.9993098,12.1076629 63.0001411,8.70836338 63.0000025,5.30906388 L63.0000025,5 Z" id="Fill-5" fill="#01ACEC"></path>
                    <path d="M58.7230511,14.2643677 C58.665893,14.2469588 58.6136559,14.2237036 58.5591476,14.2155188 C57.9765903,14.129124 57.3897429,14.0857317 56.8047881,14.1528988 C56.4983052,14.1881063 56.1918222,14.2726823 55.8997234,14.3775254 C55.6021989,14.4841873 55.3889605,14.7105028 55.2925615,15.0298389 C55.0587563,15.8044044 55.4681994,16.6041738 56.2234925,16.8369851 C56.7336245,16.9944446 57.2514533,16.9905471 57.7654968,16.8562128 C58.3192859,16.7117451 58.6674072,16.3458987 58.7149757,15.7576342 C58.7545952,15.2658982 58.7230511,14.7680561 58.7230511,14.2643677 M58.7010963,12.7571999 C58.7250699,11.7222807 58.1570228,11.0636013 57.1699432,10.9712302 C56.1977525,10.8802883 55.2431003,10.9947452 54.3106552,11.2952434 C54.2127422,11.3269431 54.1148291,11.3578634 54.0165375,11.3893033 C53.9577392,11.1637673 53.9452478,9.90045389 53.9964755,9.54266233 C54.4332989,9.34401916 54.898512,9.21968854 55.3738193,9.13589204 C56.3140873,8.97050764 57.2549863,8.93426078 58.1942449,9.15070259 C59.7643866,9.51252158 60.7904547,10.6042146 60.9481755,12.4295491 C61.0226197,13.2910291 60.9919587,14.1625127 60.9987723,15.0295791 C61.0018005,15.3994529 61.0021791,15.7719251 60.963569,16.138681 C60.8532907,17.1839936 60.3299101,17.9551812 59.4391033,18.4608183 C58.925943,18.7523522 58.3674854,18.8963003 57.7878301,18.9561921 C56.9424468,19.0433664 56.1036247,19.0128359 55.2861265,18.751053 C54.3131787,18.439382 53.5729006,17.8482594 53.2043387,16.8390638 C52.9893338,16.2506695 52.938737,15.6427876 53.0776574,15.02815 C53.2620014,14.2130504 53.7233031,13.6089361 54.4332989,13.2061933 C54.9989486,12.8856879 55.6144381,12.7425193 56.2501158,12.675612 C56.941185,12.6032482 57.6302355,12.6307906 58.3180242,12.7208232 C58.4383966,12.7365431 58.5597785,12.7439484 58.7010963,12.7571999" id="Fill-7" fill="#01ACEC"></path>
                    <path d="M90.7197476,14.2657037 C90.6605933,14.2483075 90.6164804,14.2297428 90.5705979,14.2228622 C89.9876501,14.1332847 89.400152,14.0914818 88.8144235,14.1569124 C88.5074026,14.1911855 88.2010137,14.2760895 87.9072647,14.3774809 C87.6294418,14.4734198 87.4211378,14.67815 87.3115507,14.9675244 C87.043966,15.6744083 87.407866,16.5411037 88.1010329,16.7971137 C88.7083755,17.0214471 89.3302539,17.0179419 89.9402509,16.7990611 C90.4043845,16.6322391 90.6784155,16.2750972 90.7121637,15.7772277 C90.745912,15.2845511 90.7197476,14.7877202 90.7197476,14.2657037 M85.9712258,11.4037654 L85.9712258,9.58754781 C85.9942302,9.56599726 86.0115468,9.53821524 86.035436,9.52912766 C87.4585516,8.9901044 88.9140251,8.82237365 90.3936407,9.21612547 C91.8661779,9.60780013 92.6796757,10.6362544 92.9253936,12.1551784 C92.975068,12.4610403 92.9909941,12.7754705 92.9940277,13.0861359 C93.003002,13.9634768 92.9999684,14.8406878 92.9970612,15.7181585 C92.9922581,17.1106352 92.2832915,18.1644049 91.0162774,18.6637025 C90.1450157,19.0069533 89.2393737,19.0451212 88.3238726,18.9639821 C87.8497536,18.9219195 87.3867575,18.8158545 86.9439852,18.6305977 C85.2378643,17.9170929 84.7968615,16.2918443 85.0788556,15.011015 C85.2669359,14.1574317 85.7748032,13.5541462 86.5243436,13.1590962 C87.0636841,12.874655 87.6459999,12.744443 88.2444947,12.6813492 C88.937156,12.6085187 89.6277949,12.6373393 90.3174226,12.7263976 C90.4382592,12.7421061 90.5599805,12.7498955 90.6793003,12.7613199 C90.7955865,12.1592029 90.4606316,11.4930833 89.9043538,11.19553 C89.5136575,10.986256 89.0893392,10.9417269 88.6599651,10.9461409 C87.8018487,10.9547092 86.9567514,11.0588269 86.1427479,11.3576784 C86.099899,11.3733869 86.0545221,11.3816956 85.9712258,11.4037654" id="Fill-9" fill="#01ACEC"></path>
                    <path d="M77.2796074,16.1633841 C77.4092379,16.2342708 77.494435,16.2793214 77.5781902,16.3268388 C78.568704,16.8875703 79.6299968,17.0917914 80.7604958,16.9461232 C80.84779,16.9346983 80.934691,16.9152239 81.019888,16.8925038 C81.3317091,16.8098028 81.583237,16.6667312 81.6395981,16.3109997 C81.7001535,15.9289129 81.6118108,15.6038211 81.2594883,15.4058318 C81.0218541,15.2724974 80.7665252,15.1639604 80.5083126,15.0739889 C80.0821964,14.9257241 79.6415312,14.8174467 79.2182985,14.6620414 C78.8696461,14.53403 78.5220422,14.3887514 78.2009149,14.2047836 C77.458259,13.7788147 77.0646487,13.1283713 77.0082876,12.2737069 C76.9164059,10.8784345 77.5907732,9.78553391 78.9189293,9.30984041 C80.3878571,8.78364343 81.8192983,8.9446314 83.1931987,9.66401396 C83.2186267,9.67738635 83.2385497,9.70114505 83.2693517,9.72698103 L83.2693517,11.4527981 C83.162921,11.4120318 83.07602,11.3776271 82.9882015,11.3460786 C82.0535246,11.0093022 81.0961721,10.9114111 80.1162752,11.0931717 C79.9739306,11.119527 79.82962,11.1715884 79.7032662,11.2416961 C79.2449062,11.4964206 79.2067642,12.0439096 79.6327493,12.3453725 C79.7979005,12.4622186 79.9914943,12.5497234 80.1844328,12.6156765 C80.5745042,12.7484916 80.9770274,12.8450844 81.3665744,12.9797171 C81.7275476,13.1040933 82.0917977,13.231845 82.431144,13.4039983 C83.418512,13.9051383 83.9137034,14.7325386 83.9888078,15.8180389 C84.0218381,16.2995747 83.9898564,16.7717629 83.7825,17.2194133 C83.4902086,17.8502525 83.0045856,18.2854393 82.3833026,18.5852145 C81.9177336,18.8102082 81.422018,18.9339352 80.9099183,18.9759998 C79.7178153,19.0738909 78.5785344,18.8747332 77.507149,18.334255 C77.4294231,18.2951765 77.3561536,18.2471398 77.2796074,18.2026084 L77.2796074,16.1633841 Z" id="Fill-11" fill="#01ACEC"></path>
                    <path d="M46.546287,10.9664776 L45,10.9664776 L45,8.92764565 L46.5402679,8.92764565 C46.5518045,8.41574322 46.5446568,7.93083903 46.5460362,7.44659982 C46.5471648,6.9694094 46.546287,6.49221899 46.546287,6 L48.7825157,6 C48.7899142,6.96369056 48.7811363,7.92512019 48.7877824,8.91594198 L50.9806233,8.91594198 C51.0146062,9.60592634 50.9926615,10.2661195 50.9967997,10.9559709 L48.8083477,10.9559709 C48.7990683,11.0684857 48.7862776,11.1541353 48.7862776,11.2400508 C48.785149,12.7669803 48.7841459,14.2941759 48.7875316,15.8213714 C48.7877824,15.9799029 48.8060906,16.1402963 48.8321734,16.2968329 C48.8870979,16.6262645 49.0753208,16.8293497 49.3840515,16.8990397 C49.8245759,16.9986539 50.2623415,16.9761775 50.6964706,16.852491 C50.785378,16.8270888 50.8745363,16.8035484 50.982755,16.7740233 L50.982755,18.6948876 C50.7103898,18.8480992 50.4071766,18.9100755 50.1015809,18.9543632 C49.5553457,19.0334959 49.0107407,19.0174034 48.4804311,18.8450403 C47.4565536,18.5120178 46.8597829,17.7576633 46.6442231,16.6649664 C46.573373,16.3068076 46.5533093,15.9325562 46.5506759,15.5650877 C46.5401425,14.1578547 46.546287,12.7506218 46.546287,11.3431229 L46.546287,10.9664776 Z" id="Fill-13" fill="#01ACEC"></path>
                    <path d="M73,9 L75,9 L75,18.9967984 C74.3299273,19.0020393 73.6721163,18.9997548 73,18.9976047 L73,9 Z" id="Fill-17" fill="#01ACEC"></path>
                    <path d="M43.9628316,19 L42.0467599,19 C41.996825,18.7671787 41.9806268,9.42266236 42.0293329,9 L43.9519956,9 C44.0062872,9.20641337 44.020698,18.62692 43.9628316,19" id="Fill-19" fill="#01ACEC"></path>
                    <path d="M44,6.02881325 L44,7.94236051 C43.8186669,8.00167269 42.4365348,8.02111931 42.0445755,7.97250277 C41.9980126,7.78058895 41.9832567,6.4735331 42.0229336,6.05069069 C42.1948667,5.99757712 43.5857429,5.97971054 44,6.02881325" id="Fill-25" fill="#01ACEC"></path>
                    <polygon id="Fill-27" fill="#01ACEC" points="73 8 75 8 75 6 73 6"></polygon>
                    <path d="M9.52629241,13.603527 L9.52629241,13.908017 C9.52629241,14.5972849 9.52203348,15.286815 9.52908734,15.9763452 C9.53095063,16.1605348 9.48942598,16.3194049 9.39373296,16.4778814 C9.11277614,16.9430781 8.83022221,17.4081437 8.571891,17.8858034 C8.26830856,18.4471618 8.49030571,19.1378726 9.04915825,19.4427562 C9.599626,19.7434418 10.2994228,19.5721087 10.6281596,19.0428917 C10.8790376,18.6390915 10.8761096,18.2203357 10.6405371,17.8089265 C10.3803426,17.3546185 10.1148244,16.902803 9.84571277,16.4537426 C9.76199802,16.3136326 9.71807772,16.1729978 9.71940864,16.0082242 C9.72526468,15.2891765 9.72127193,14.5701287 9.72273594,13.851081 C9.72300212,13.7651521 9.73418183,13.679092 9.73884004,13.6136286 C9.98599155,13.521009 10.2242259,13.4652537 10.4246622,13.3474458 C10.6342818,13.2239968 10.8073011,13.0408567 11.0082698,12.873853 C11.0379493,12.8873654 11.0838659,12.9052072 11.1265884,12.9282965 C12.1781469,13.4949024 13.2285075,14.0641321 14.2819292,14.6273272 C14.4138232,14.6977758 14.4915488,14.7990538 14.5567638,14.9249954 C14.8156274,15.424826 15.0681026,15.9281988 15.3448005,16.4183215 C15.6300162,16.9236621 16.2182821,17.13304 16.7628938,16.9508183 C17.2991207,16.7712203 17.6297208,16.2349191 17.5521282,15.6698874 C17.476399,15.118237 17.0068511,14.7009243 16.4207147,14.670882 C15.9120378,14.6449065 15.4030947,14.619587 14.8938854,14.6052874 C14.7180711,14.6004334 14.5640839,14.5583217 14.4111614,14.4748854 C13.3710488,13.908017 12.3281413,13.3462651 11.2866979,12.7814958 C11.2190872,12.7450252 11.1561348,12.6995026 11.0806717,12.6516185 C11.260745,12.2110853 11.2487667,11.77803 11.0846645,11.3410389 C11.143358,11.3022069 11.1899401,11.2665234 11.2413136,11.2385802 C12.3177602,10.6550508 13.3934082,10.0703407 14.4738476,9.49389561 C14.5820513,9.43617238 14.7180711,9.41255833 14.8431774,9.40521174 C15.371685,9.37411991 15.9012573,9.36205051 16.4297649,9.33004035 C17.0387931,9.29330739 17.5163265,8.83388298 17.5582505,8.26124232 C17.60257,7.660396 17.2297799,7.15558014 16.6384529,7.01533893 C16.1120748,6.89044686 15.5880923,7.13039182 15.309398,7.63901217 C15.0581207,8.09804302 14.8148288,8.56179667 14.5799218,9.02922363 C14.496207,9.19570266 14.3854746,9.31298576 14.2185775,9.40219439 C13.2090761,9.94216894 12.2042329,10.4905396 11.1973933,11.0353682 C11.1293833,11.0721011 11.0569814,11.1009627 10.9639502,11.1439928 C10.6682202,10.7164473 10.2471177,10.4939505 9.72193738,10.415237 L9.72193738,10.1048435 C9.72193738,9.60265141 9.75321396,9.09783555 9.71368569,8.59852964 C9.66710356,8.01093342 9.81004417,7.50060761 10.1488959,7.01979936 C10.3587817,6.7218688 10.538855,6.39953705 10.6996299,6.07248249 C11.0006836,5.45982914 10.6920436,4.73081102 10.0492102,4.48824227 C9.40398103,4.24488639 8.69460165,4.58532225 8.49203591,5.24034969 C8.39101922,5.56727306 8.42881729,5.88225822 8.60356685,6.17979522 C8.87361014,6.63987558 9.13979378,7.10231734 9.41409601,7.56016749 C9.49315255,7.69201259 9.52948662,7.82464482 9.52842188,7.97839851 C9.52336439,8.70715425 9.5265586,9.43604119 9.52562695,10.1649281 C9.52562695,10.2421985 9.51724217,10.3196001 9.51418106,10.3736501 C9.24813052,10.4830618 8.99166259,10.5658422 8.75848572,10.6907343 C8.5084062,10.8245472 8.3311279,11.0432395 8.20375903,11.296041 C8.08171383,11.5387409 8.02341962,11.7953469 8.03406696,12.0667773 C8.06321407,12.8224268 8.51412915,13.2954949 9.52629241,13.603527 M10.4967979,14.4445807 C10.4687156,15.1684824 10.6903134,15.7888759 11.1846165,16.3124518 C11.2933525,16.4276359 11.4161962,16.5299635 11.5261301,16.6442292 C12.3852377,17.5359219 12.4843911,18.8989772 11.7650299,19.9065099 C11.0556505,20.9006613 9.72632941,21.2753375 8.59558134,20.7866579 C8.41763758,20.7099123 8.25819358,20.5817405 8.10686819,20.4576355 C7.95394569,20.3320875 7.82750846,20.1758412 7.67937727,20.0439961 C7.06968366,19.5016602 6.94178242,18.8038651 7.03627761,18.0491339 C7.11639889,17.4081437 7.43515379,16.8836494 7.92360076,16.4532178 C8.52916852,15.9195403 8.78590264,15.2432603 8.74930239,14.4515337 C7.626806,13.9580001 6.9811776,13.1396422 7.01644693,11.9201078 C7.04918752,10.7837474 7.67205722,10.0111744 8.74437799,9.55371786 C8.79269032,8.76684532 8.53861804,8.09030286 7.9359783,7.55806846 C7.44726514,7.12619377 7.14474744,6.60471688 7.03441433,5.96818711 C6.78313698,4.51894053 7.94090269,3.10039222 9.42966775,3.00567365 C10.7903985,2.91922 11.959477,3.83032867 12.1922546,5.08620243 C12.3670042,6.02722223 12.095763,6.84466184 11.3787974,7.49614718 C10.9039258,7.92762831 10.6039369,8.44202098 10.5164955,9.07251605 C10.4952008,9.22613854 10.4967979,9.3826472 10.4878808,9.54217321 C10.9558316,9.72491971 11.411538,9.73593959 11.8613883,9.61537676 C12.8675625,9.34578305 13.5395431,8.72552074 13.7857629,7.71129739 C13.9477357,7.04367579 14.2756739,6.49792891 14.8277388,6.07090822 C15.6569008,5.42978683 17.5462722,5.35527139 18.4845695,6.61757342 C19.0199979,7.33793306 19.1425754,8.77615975 18.5390041,9.62744616 C17.9259832,10.4925074 16.7998933,10.9182162 15.7404824,10.6583305 C15.5373843,10.6083475 15.335484,10.5493123 15.129591,10.5145472 C14.0817591,10.3377042 12.9781618,10.866003 12.4616324,11.7729136 C12.3733926,11.9281103 12.3703314,12.0509034 12.4577728,12.2079368 C13.0067765,13.1927738 14.280199,13.8003108 15.489072,13.4109413 C16.0272953,13.2375093 16.5635222,13.2070734 17.1093318,13.3627949 C18.2897231,13.6994263 19.0874754,14.8301456 18.9923148,16.0328878 C18.894093,17.2723629 17.9166667,18.269794 16.6699957,18.4028198 C15.3695555,18.5417491 14.1971497,17.7588123 13.8489815,16.5181564 C13.8197013,16.4137299 13.7996045,16.3069419 13.7708566,16.2026465 C13.4141706,14.9019061 12.0454543,14.0762015 10.7339676,14.3708524 C10.657839,14.387907 10.5847716,14.4168998 10.4967979,14.4445807" id="Fill-30" fill="#FFFFFF"></path>
                    <path d="M9.41032418,14.0844982 C8.45450531,13.7801347 8.02869146,13.312701 8.0011669,12.5660513 C7.99111226,12.2978537 8.04616139,12.044304 8.16141266,11.8044946 C8.28169125,11.554704 8.44910095,11.3386163 8.68525922,11.2063971 C8.90545576,11.0829925 9.14764681,11.0011981 9.39888704,10.8930895 C9.40177774,10.8396833 9.40969577,10.7632035 9.40969577,10.6868534 C9.41057555,9.96664762 9.40755916,9.24644181 9.41233511,8.52636564 C9.41334058,8.37444317 9.37902913,8.24339061 9.30437345,8.1131158 C9.04534088,7.6607187 8.79397497,7.20378468 8.53896426,6.74918393 C8.37394254,6.45519063 8.33824858,6.14395699 8.43364194,5.82092732 C8.6249314,5.17370133 9.29482155,4.83732011 9.90413251,5.07777759 C10.5111812,5.31745731 10.80264,6.03779274 10.5183451,6.64314931 C10.3665201,6.96630861 10.1964711,7.28480135 9.99826905,7.57918353 C9.67828024,8.05426529 9.54329675,8.55851305 9.58728578,9.13911093 C9.62461362,9.63247005 9.59507813,10.1312735 9.59507813,10.6274844 L9.59507813,10.9341811 C10.0910231,11.0119571 10.4886839,11.231804 10.7679515,11.6542573 C10.8558038,11.6117397 10.9241754,11.5832219 10.9883994,11.5469264 C11.9391909,11.0085868 12.8880972,10.4667473 13.8414024,9.93320393 C13.9990089,9.84505779 14.1035771,9.72917155 14.1826317,9.5646753 C14.4044621,9.10281546 14.6342105,8.64458516 14.8714999,8.19102143 C15.13468,7.68845881 15.6294938,7.45137163 16.1265699,7.57477622 C16.6849793,7.71334713 17.0370172,8.21215058 16.9951648,8.80584075 C16.9555747,9.37166118 16.5046242,9.82561379 15.929499,9.86190926 C15.430412,9.89353817 14.9303196,9.90546382 14.4312325,9.93618535 C14.3130906,9.94344444 14.1846426,9.96677724 14.0824623,10.023813 C13.0621681,10.5933926 12.0463985,11.1711387 11.0298747,11.7477181 C10.9813611,11.7753286 10.9373721,11.8105871 10.8819459,11.8489566 C11.036913,12.280743 11.0482245,12.7086407 10.8781754,13.143927 C10.9494376,13.1912408 11.0088857,13.2362212 11.0727326,13.2722574 C12.0562017,13.8303003 13.0410534,14.3853617 14.0232657,14.9454786 C14.1676754,15.0279211 14.3130906,15.0695313 14.4791177,15.0743275 C14.9599807,15.0884568 15.4405924,15.1134747 15.9209526,15.1391408 C16.4744603,15.1688253 16.9178698,15.5811678 16.9893834,16.1262479 C17.0626566,16.68455 16.7504601,17.2144639 16.2440835,17.3919228 C15.7297888,17.5719742 15.1742702,17.3650901 14.9049316,16.8657681 C14.6436367,16.3814828 14.4052162,15.8841053 14.1607628,15.3902277 C14.0991782,15.2657861 14.0257793,15.1657143 13.9012275,15.0961047 C12.9064469,14.5396174 11.9145571,13.9771673 10.921536,13.4173097 C10.8811918,13.3944954 10.8378312,13.3768662 10.8098039,13.3635146 C10.6200226,13.5285294 10.4566348,13.7094882 10.2586841,13.8314669 C10.0694056,13.9478717 9.84443311,14.002963 9.61103986,14.0944794 C9.60664096,14.1591631 9.59608359,14.2441982 9.59583223,14.3291037 C9.59444971,15.0395875 9.5982202,15.7500713 9.59269015,16.4605551 C9.59143332,16.6233662 9.6329087,16.762326 9.71196328,16.9007673 C9.96609421,17.3444794 10.2168317,17.7909137 10.4625419,18.2398109 C10.6850007,18.6463201 10.6877657,19.0600884 10.4508534,19.4590794 C10.1404165,19.9819934 9.47957549,20.1512858 8.95975079,19.8541815 C8.43200807,19.5529291 8.2223689,18.8704446 8.50905172,18.3157721 C8.75300233,17.8438014 9.01982724,17.3842748 9.28514396,16.9246186 C9.37551001,16.7680296 9.41472309,16.6110517 9.41296353,16.4290558 C9.40630233,15.747738 9.41032418,15.0664202 9.41032418,14.3853617 L9.41032418,14.0844982 Z" id="Fill-31" fill="#1996C2"></path>
                    <path d="M95,18.8167614 L95,17.365767 L96.5777439,17.365767 L96.5777439,18.8167614 L95,18.8167614 Z M97.2439024,16.0056926 C97.2439024,15.0341507 97.4842495,14.2903252 97.9649508,13.7741935 C98.4456521,13.2580619 99.134006,13 100.030033,13 C100.606875,13 101.174094,13.1081583 101.731707,13.3244782 L101.731707,14.4914611 C101.266388,14.3055019 100.778003,14.2125237 100.266537,14.2125237 C99.724306,14.2125237 99.3214844,14.3349134 99.0580601,14.5796964 C98.7946358,14.8244794 98.6629256,15.2998067 98.6629256,16.0056926 C98.6629256,16.7039883 98.7946358,17.1774181 99.0580601,17.4259962 C99.3214844,17.6745743 99.724306,17.7988615 100.266537,17.7988615 C100.75493,17.7988615 101.243315,17.7020883 101.731707,17.5085389 L101.731707,18.6755218 C101.174094,18.8918417 100.606875,19 100.030033,19 C99.134006,19 98.4456521,18.7419381 97.9649508,18.2258065 C97.4842495,17.7096748 97.2439024,16.9696443 97.2439024,16.0056926 Z M102.573171,16 C102.573171,15.0342157 102.814885,14.2927783 103.29832,13.7756654 C103.781756,13.2585525 104.474991,13 105.378049,13 C106.281106,13 106.974342,13.2585525 107.457777,13.7756654 C107.941213,14.2927783 108.182927,15.0342157 108.182927,16 C108.182927,16.9657843 107.941213,17.7072217 107.457777,18.2243346 C106.974342,18.7414475 106.281106,19 105.378049,19 C104.474991,19 103.781756,18.7414475 103.29832,18.2243346 C102.814885,17.7072217 102.573171,16.9657843 102.573171,16 Z M103.97561,16.0029461 C103.97561,16.7512664 104.090756,17.2560312 104.321053,17.5172559 C104.551349,17.7784805 104.904662,17.9090909 105.381001,17.9090909 C105.857341,17.9090909 106.209669,17.7784805 106.437997,17.5172559 C106.666325,17.2560312 106.780488,16.7512664 106.780488,16.0029461 C106.780488,15.2546259 106.666325,14.748879 106.437997,14.4856902 C106.209669,14.2225015 105.857341,14.0909091 105.381001,14.0909091 C104.904662,14.0909091 104.551349,14.2225015 104.321053,14.4856902 C104.090756,14.748879 103.97561,15.2546259 103.97561,16.0029461 Z M109.02439,19 L109.02439,13.6589595 C109.910441,13.219651 110.780865,13 111.63569,13 L111.659109,13 C112.307058,13 112.847658,13.1445072 113.280925,13.433526 C114.022554,13.1445072 114.740751,13 115.43554,13 C116.243525,13 116.872923,13.2167608 117.323755,13.650289 C117.774587,14.0838172 118,14.6840039 118,15.4508671 L118,19 L116.565542,19 L116.565542,15.3526012 C116.565542,14.9749499 116.468936,14.689789 116.275723,14.4971098 C116.082509,14.3044306 115.722434,14.2080925 115.195488,14.2080925 C114.781737,14.2080925 114.373848,14.2543348 113.971807,14.3468208 C114.139649,14.5356464 114.223569,14.9036582 114.223569,15.4508671 L114.223569,19 L112.800821,19 L112.800821,15.3179191 C112.800821,14.9556822 112.706167,14.6840086 112.516857,14.5028902 C112.327546,14.3217717 111.973327,14.2312139 111.454187,14.2312139 C111.110696,14.2312139 110.77892,14.2620421 110.458848,14.3236994 L110.458848,19 L109.02439,19 Z" id=".com" fill="#01ACEC"></path>
                </g>
            </g>
        </g>
    </g>
</svg>