<?xml version="1.0" encoding="UTF-8"?>
<svg width="143px" height="33px" viewBox="0 0 143 33" version="1.1" xmlns="http://www.w3.org/2000/svg" xmlns:xlink="http://www.w3.org/1999/xlink">
    <!-- Generator: Sketch 47.1 (45422) - http://www.bohemiancoding.com/sketch -->
    <title>logo kitabisa putih</title>
    <desc>Created with Sketch.</desc>
    <defs>
        <path d="M12.1163555,17.4485562 C12.2181366,17.4157759 12.3029542,17.3812866 12.3910103,17.3612455 C13.9106334,17.012158 15.4965684,17.9901312 15.9100156,19.5303419 C15.9433258,19.6540062 15.9664579,19.7804669 16.0005391,19.9041312 C16.4038083,21.3733437 17.7624321,22.3003598 19.2692554,22.1359919 C20.7137763,21.9784598 21.8461685,20.7972794 21.9599783,19.3293098 C22.0703954,17.9049955 21.1458835,16.5661276 19.7781611,16.1674812 C19.1458844,15.9829169 18.5244026,16.0191151 17.9007619,16.2244973 C16.5000377,16.6855973 15.024674,15.9661384 14.3883878,14.7998723 C14.2870693,14.6139098 14.2906162,14.4683401 14.3930142,14.284708 C14.9915181,13.2107241 16.2701049,12.5851009 17.4843846,12.7945223 C17.7229534,12.8356919 17.9567415,12.9056026 18.1922261,12.9647937 C19.4197681,13.2725562 20.7245713,12.7684223 21.4348802,11.7439973 C22.1342399,10.7358848 21.9920548,9.03270442 21.3716525,8.17963835 C20.2844451,6.68479192 18.0953798,6.77303478 17.1346276,7.53226514 C16.4949487,8.03795264 16.1149658,8.68408299 15.9271334,9.47485085 C15.641992,10.6759169 14.8633664,11.4104455 13.6973556,11.7297044 C13.1762671,11.8723223 12.6480848,11.8594276 12.1058689,11.6430151 C12.1163555,11.4541009 12.1143507,11.2687598 12.1390249,11.0868366 C12.2404976,10.3401901 12.5879414,9.73103478 13.1383305,9.22006514 C13.9689262,8.44856156 14.283214,7.48053121 14.0808854,6.36615442 C13.8110112,4.87892049 12.4565512,3.79996514 10.879869,3.90234549 C9.15467893,4.01451335 7.81317285,5.69439014 8.10432855,7.41062049 C8.23232603,8.16441335 8.58285406,8.78195799 9.14912723,9.29339371 C9.84725323,9.92352228 10.1416474,10.7248544 10.085822,11.6566866 C8.843167,12.1984169 8.12144629,13.1133151 8.0836639,14.4590187 C8.04264302,15.9032187 8.79088851,16.8723366 10.0915279,17.4567901 C10.1337825,18.3943705 9.83630405,19.1952366 9.13478535,19.8272294 C8.5688206,20.3369562 8.19932427,20.9580741 8.10648755,21.7171491 C7.99714994,22.6109187 8.14534943,23.4372634 8.85180297,24.0795098 C9.02328875,24.2356437 9.1699461,24.4206741 9.34713779,24.5693509 C9.52247891,24.7163187 9.70707286,24.8681026 9.91341096,24.9589866 C11.2236116,25.5376919 12.7637451,25.0939919 13.585859,23.9166955 C14.4192306,22.7235526 14.3044955,21.1092366 13.308891,20.0534294 C13.1816646,19.9181134 13.039171,19.7969348 12.9133325,19.6605312 C12.3405824,19.0405009 12.0838164,18.3058169 12.1163555,17.4485562 Z M28.6440682,14.6671973 C28.6895613,22.1554116 22.6505478,28.9429651 14.444059,28.9411009 C6.31051331,28.9393919 0.178046261,22.3332955 0.186836449,14.5954223 C0.195935065,6.65045799 6.59519204,0.225818708 14.4546997,0.260307993 C22.4707345,0.295418708 28.7119223,6.88784371 28.6440682,14.6671973 Z" id="path-1"></path>
    </defs>
    <g id="Dashboard" stroke="none" stroke-width="1" fill="none" fill-rule="evenodd">
        <g id="Homepage-Copy-2" transform="translate(-18.000000, -50.000000)">
            <g id="ktbs-putih" transform="translate(20.000000, 52.000000)">
                <g id="Group-2">
                    <g id="Path-14">
                        <mask id="mask-2" fill="white">
                            <use xlink:href="#path-1"></use>
                        </mask>
                        <use id="Mask" fill="#FFFFFF" xlink:href="#path-1"></use>
                    </g>
                    <path d="M10.9917511,16.452546 L10.9917511,16.81313 C10.9917511,17.6293764 10.9868163,18.4459335 10.9949896,19.2624907 C10.9971486,19.4806121 10.9490339,19.6687496 10.8381542,19.856421 C10.5126088,20.4073175 10.1852128,20.9580585 9.88588379,21.5237139 C9.53412205,22.1884871 9.79135072,23.0064425 10.4388946,23.3674925 C11.076723,23.723571 11.8875793,23.5206746 12.2684874,22.8939639 C12.5591805,22.4157746 12.5557878,21.9198746 12.2828293,21.4326746 C11.9813413,20.8946728 11.6736847,20.3596228 11.3618643,19.8278353 C11.2648638,19.6619139 11.2139733,19.495371 11.2155154,19.3002425 C11.2223008,18.44873 11.2176744,17.5972175 11.2193708,16.745705 C11.2196792,16.643946 11.2326331,16.5420317 11.2380306,16.4645085 C11.5244057,16.3548264 11.8004485,16.2887996 12.0326945,16.1492889 C12.2755813,16.0030978 12.4760592,15.7862192 12.7089221,15.5884496 C12.7433118,15.6044514 12.7965156,15.62558 12.8460182,15.6529228 C14.0644617,16.3239103 15.2815172,16.998005 16.5021196,17.6649532 C16.6549455,17.74838 16.7450064,17.8683157 16.8205712,18.0174585 C17.1205171,18.6093692 17.4130607,19.2054746 17.7336712,19.7858889 C18.0641515,20.3843246 18.7457766,20.6322746 19.3768196,20.4164835 C19.9981471,20.2037996 20.3812142,19.5686996 20.2913076,18.8995764 C20.2035599,18.2462996 19.6594935,17.7521085 18.9803358,17.7165317 C18.3909306,17.685771 17.8012169,17.6557871 17.2111948,17.6388532 C17.0074783,17.633105 16.8290529,17.5832353 16.6518612,17.4844282 C15.4466802,16.81313 14.2382606,16.1478907 13.0315374,15.4790782 C12.9531968,15.4358889 12.8802537,15.38198 12.7928144,15.3252746 C13.0014657,14.8035853 12.9875865,14.2907514 12.7974408,13.7732567 C12.8654491,13.727271 12.919424,13.6850139 12.9789505,13.6519228 C14.226232,12.9608942 15.4725881,12.2684675 16.724496,11.5858282 C16.8498718,11.517471 17.0074783,11.4895067 17.1524393,11.4808067 C17.7648224,11.4439871 18.3784393,11.4296942 18.9908224,11.3917871 C19.6965048,11.3482871 20.2498241,10.8042264 20.2984014,10.1260925 C20.3497546,9.41455674 19.9178017,8.81674246 19.2326296,8.65066567 C18.622714,8.50276567 18.0155741,8.78691389 17.6926504,9.38923353 C17.4014947,9.93282817 17.1195918,10.4820157 16.8474044,11.0355532 C16.7504039,11.2327014 16.622098,11.3715907 16.4287138,11.4772335 C15.259002,12.1166835 14.0946876,12.7660764 12.92806,13.4112746 C12.8492567,13.4547746 12.7653644,13.4889532 12.6575689,13.5399103 C12.3149058,13.0336014 11.8269732,12.7701157 11.2184455,12.6769014 L11.2184455,12.3093264 C11.2184455,11.7146192 11.2546857,11.116805 11.2088842,10.5255157 C11.1549094,9.82967103 11.320535,9.22533174 11.7131634,8.65594781 C11.9563586,8.30313174 12.1650099,7.92141924 12.3513002,7.53411389 C12.7001319,6.80859603 12.3425101,5.94527639 11.5976573,5.65802103 C10.8500286,5.36983353 10.0280689,5.77298531 9.7933555,6.54868353 C9.6763072,6.93583353 9.72010393,7.30884603 9.92258668,7.66119603 C10.2354865,8.20603353 10.5439142,8.75366746 10.8617489,9.29586389 C10.9533519,9.45199781 10.9954523,9.60906389 10.9942186,9.79114246 C10.9883584,10.6541514 10.9920596,11.5173157 10.9909801,12.38048 C10.9909801,12.4719853 10.9812646,12.563646 10.9777177,12.6276532 C10.6694442,12.757221 10.3722742,12.8552514 10.1020916,13.0031514 C9.8123238,13.1616157 9.60691098,13.420596 9.45932835,13.7199692 C9.31791427,14.00738 9.25036861,14.3112585 9.26270572,14.6326925 C9.29647854,15.5275496 9.81895499,16.0877675 10.9917511,16.452546 M12.1162784,17.4485407 C12.0837393,18.3058014 12.3405053,19.0404853 12.9132554,19.6605157 C13.0392481,19.7969192 13.1815875,19.9180978 13.3089681,20.0534139 C14.3044184,21.1093764 14.4193077,22.7235371 13.5857819,23.91668 C12.7638222,25.0939764 11.2235345,25.5376764 9.91333385,24.958971 C9.70714997,24.8680871 9.5224018,24.7163032 9.34706068,24.5693353 C9.16986899,24.4206585 9.02336586,24.2356282 8.85172587,24.0794942 C8.14527232,23.4372478 7.99707284,22.6109032 8.10656465,21.7171335 C8.19940138,20.9580585 8.56874349,20.3369407 9.13470824,19.8272139 C9.83638115,19.195221 10.1338596,18.394355 10.0914508,17.4567746 C8.7908114,16.872321 8.04272013,15.9032032 8.08358679,14.4590032 C8.12152339,13.1132996 8.84324411,12.1984014 10.0857449,11.656671 C10.1417245,10.7248389 9.84733033,9.9236621 9.14905013,9.29337817 C8.58277695,8.78194246 8.23224892,8.16439781 8.10440566,7.41060496 C7.81324995,5.6943746 9.15475604,4.01449781 10.8797919,3.90232996 C12.4564741,3.7999496 13.8110883,4.87890496 14.0808083,6.36613889 C14.2832911,7.48051567 13.9690033,8.44854603 13.1382534,9.2200496 C12.5880185,9.73101924 12.2404205,10.3401746 12.139102,11.086821 C12.1144278,11.2687442 12.1162784,11.4540853 12.105946,11.6429996 C12.6481619,11.8594121 13.17619,11.8724621 13.6974327,11.7296889 C14.8632893,11.41043 15.6419149,10.6759014 15.9272105,9.47483531 C16.1148887,8.68422281 16.4948716,8.0379371 17.1345505,7.5322496 C18.0953027,6.77301924 20.2845222,6.68477639 21.3717296,8.17962281 C21.9921319,9.03268889 22.1341628,10.7358692 21.4348031,11.7439817 C20.7244942,12.7684067 19.419691,13.2725407 18.192149,12.9647782 C17.9568187,12.9055871 17.7228763,12.8356764 17.4843075,12.7945067 C16.270182,12.5850853 14.991441,13.2107085 14.3929371,14.2846925 C14.2906933,14.46848 14.2871464,14.6138942 14.3884649,14.7998567 C15.0245969,15.9661228 16.5001148,16.6855817 17.900839,16.2244817 C18.5244798,16.0190996 19.1458073,15.9830567 19.7782382,16.1674657 C21.1459606,16.5661121 22.0703183,17.9051353 21.9600554,19.3294496 C21.8462456,20.7972639 20.7136992,21.9784442 19.2691783,22.1359764 C17.762355,22.3004996 16.4038854,21.3733282 16.000462,19.9041157 C15.966535,19.7804514 15.9432487,19.6539907 15.9099385,19.5304817 C15.4966455,17.9901157 13.9107105,17.0122978 12.3910874,17.36123 C12.3028771,17.3814264 12.2182137,17.4157603 12.1162784,17.4485407" id="Fill-30" fill="#3198E8"></path>
                    <path d="M10.9917511,16.452546 C9.81895499,16.0877675 9.29647854,15.5275496 9.26270572,14.6326925 C9.25036861,14.3112585 9.31791427,14.00738 9.45932835,13.7199692 C9.60691098,13.420596 9.8123238,13.1616157 10.1020916,13.0031514 C10.3722742,12.8552514 10.6694442,12.757221 10.9777177,12.6276532 C10.9812646,12.563646 10.9909801,12.4719853 10.9909801,12.38048 C10.9920596,11.5173157 10.9883584,10.6541514 10.9942186,9.79114246 C10.9954523,9.60906389 10.9533519,9.45199781 10.8617489,9.29586389 C10.5439142,8.75366746 10.2354865,8.20603353 9.92258668,7.66119603 C9.72010393,7.30884603 9.6763072,6.93583353 9.7933555,6.54868353 C10.0280689,5.77298531 10.8500286,5.36983353 11.5976573,5.65802103 C12.3425101,5.94527639 12.7001319,6.80859603 12.3513002,7.53411389 C12.1650099,7.92141924 11.9563586,8.30313174 11.7131634,8.65594781 C11.320535,9.22533174 11.1549094,9.82967103 11.2088842,10.5255157 C11.2546857,11.116805 11.2184455,11.7146192 11.2184455,12.3093264 L11.2184455,12.6769014 C11.8269732,12.7701157 12.3149058,13.0336014 12.6575689,13.5399103 C12.7653644,13.4889532 12.8492567,13.4547746 12.92806,13.4112746 C14.0946876,12.7660764 15.259002,12.1166835 16.4287138,11.4772335 C16.622098,11.3715907 16.7504039,11.2327014 16.8474044,11.0355532 C17.1195918,10.4820157 17.4014947,9.93282817 17.6926504,9.38923353 C18.0155741,8.78691389 18.622714,8.50276567 19.2326296,8.65066567 C19.9178017,8.81674246 20.3497546,9.41455674 20.2984014,10.1260925 C20.2498241,10.8042264 19.6965048,11.3482871 18.9908224,11.3917871 C18.3784393,11.4296942 17.7648224,11.4439871 17.1524393,11.4808067 C17.0074783,11.4895067 16.8498718,11.517471 16.724496,11.5858282 C15.4725881,12.2684675 14.226232,12.9608942 12.9789505,13.6519228 C12.919424,13.6850139 12.8654491,13.727271 12.7974408,13.7732567 C12.9875865,14.2907514 13.0014657,14.8035853 12.7928144,15.3252746 C12.8802537,15.38198 12.9531968,15.4358889 13.0315374,15.4790782 C14.2382606,16.1478907 15.4466802,16.81313 16.6518612,17.4844282 C16.8290529,17.5832353 17.0074783,17.633105 17.2111948,17.6388532 C17.8012169,17.6557871 18.3909306,17.685771 18.9803358,17.7165317 C19.6594935,17.7521085 20.2035599,18.2462996 20.2913076,18.8995764 C20.3812142,19.5686996 19.9981471,20.2037996 19.3768196,20.4164835 C18.7457766,20.6322746 18.0641515,20.3843246 17.7336712,19.7858889 C17.4130607,19.2054746 17.1205171,18.6093692 16.8205712,18.0174585 C16.7450064,17.8683157 16.6549455,17.74838 16.5021196,17.6649532 C15.2815172,16.998005 14.0644617,16.3239103 12.8460182,15.6529228 C12.7965156,15.62558 12.7433118,15.6044514 12.7089221,15.5884496 C12.4760592,15.7862192 12.2755813,16.0030978 12.0326945,16.1492889 C11.8004485,16.2887996 11.5244057,16.3548264 11.2380306,16.4645085 C11.2326331,16.5420317 11.2196792,16.643946 11.2193708,16.745705 C11.2176744,17.5972175 11.2223008,18.44873 11.2155154,19.3002425 C11.2139733,19.495371 11.2648638,19.6619139 11.3618643,19.8278353 C11.6736847,20.3596228 11.9813413,20.8946728 12.2828293,21.4326746 C12.5557878,21.9198746 12.5591805,22.4157746 12.2684874,22.8939639 C11.8875793,23.5206746 11.076723,23.723571 10.4388946,23.3674925 C9.79135072,23.0064425 9.53412205,22.1884871 9.88588379,21.5237139 C10.1852128,20.9580585 10.5126088,20.4073175 10.8381542,19.856421 C10.9490339,19.6687496 10.9971486,19.4806121 10.9949896,19.2624907 C10.9868163,18.4459335 10.9917511,17.6293764 10.9917511,16.81313 L10.9917511,16.452546 Z" id="Fill-31" fill="#FFFFFF"></path>
                </g>
                <g id="Group" transform="translate(34.974194, 5.437500)" fill="#FFFFFF">
                    <path d="M4.36459096,9.76695874 C4.1762855,9.97529209 4.0021653,10.1658096 3.82991569,10.3584136 C3.55228983,10.668506 3.28214632,10.9863027 2.99657048,11.2882095 C2.85456198,11.4379591 2.80545914,11.5987835 2.80639444,11.8047093 C2.81262972,13.2747594 2.80966796,14.7448096 2.80966796,16.2148597 L2.80966796,16.6617011 L0.0500888127,16.6617011 L0.0500888127,0.707989265 L2.79688563,0.707989265 C2.80125033,1.07024532 2.80701796,1.43795849 2.80920031,1.80567166 C2.81153854,2.1671252 2.80966796,2.52857874 2.80966796,2.89003228 L2.80966796,4.01066666 L2.80966796,5.13146154 L2.80966796,6.21582216 L2.80966796,7.32714735 C2.83258261,7.33886409 2.85549727,7.35058083 2.87841192,7.36261859 C2.9618088,7.2724157 3.0475439,7.18413886 3.1281349,7.09136793 C4.89864272,5.05233339 6.671177,3.0152249 8.4340466,0.969288716 C8.61299915,0.761757887 8.79163993,0.673160039 9.06240697,0.677814636 C10.0335519,0.69386497 11.0048526,0.683913763 11.9761534,0.683913763 L12.3055321,0.683913763 C12.3247056,0.720829533 12.3332791,0.730941244 12.334682,0.742176478 C12.3365526,0.753090706 12.3339026,0.766893994 12.328135,0.776203188 C12.309585,0.806377818 12.2916586,0.83767597 12.2682763,0.863838016 C10.2533455,3.12966378 8.2374794,5.39500804 6.22223683,7.66083381 C6.21506625,7.66917998 6.21350743,7.68266226 6.18825455,7.7470241 C8.45072598,10.6810253 10.7303444,13.637818 13.0391128,16.6324895 C12.9351395,16.655923 12.873722,16.681443 12.8126163,16.681764 C11.8177773,16.6844925 10.8229383,16.6771094 9.82841114,16.6891471 C9.61750279,16.6918757 9.51368538,16.5795234 9.40300915,16.4318603 C8.01410048,14.5833432 6.62238593,12.7365917 5.23160668,10.8893587 C5.01664539,10.6038232 4.80277528,10.3171642 4.58641106,10.0325918 C4.52296708,9.94913004 4.45235253,9.87128592 4.36459096,9.76695874" id="Fill-3"></path>
                    <path d="M41.9049062,6.99248181 L41.9049062,7.39807378 C41.9049062,8.39768863 41.9047503,9.39666147 41.9049062,10.3962763 C41.9049062,11.2751927 41.8988268,12.15443 41.9074003,13.0333463 C41.9142591,13.7185351 42.1820644,14.0945945 42.8214923,14.264407 C43.1574181,14.3534864 43.5120496,14.3990693 43.8591989,14.407255 C45.2463928,14.4391952 45.9601765,13.8458143 46.2465318,12.4451016 C46.4505813,11.4461287 46.451049,10.4351181 46.363755,9.42507056 C46.3213551,8.9331278 46.2028848,8.45354379 45.9779471,8.0079865 C45.6850448,7.42840891 45.2337664,7.0443244 44.618656,6.90484699 C43.7245168,6.70213126 42.8334953,6.80196434 41.9049062,6.99248181 L41.9049062,6.99248181 Z M39.1284917,0.161940824 L41.9041267,0.161940824 L41.9041267,4.69262934 C42.4021697,4.63998424 42.8525129,4.58493159 43.3044148,4.54625028 C44.0802395,4.4799624 44.8501408,4.54304022 45.6013362,4.74800299 C47.2772236,5.20511653 48.3830505,6.30584849 48.8734553,8.00589995 C49.4064159,9.85489853 49.3861512,11.723318 48.7778997,13.5516116 C48.1507864,15.4355999 46.8293746,16.5074413 44.9246524,16.7992364 C43.7605255,16.9773951 42.6099605,16.8841427 41.5089659,16.4320047 C40.2430481,15.9116529 39.4405675,14.9719058 39.1900651,13.5750451 C39.1395594,13.2927197 39.1314535,12.9998011 39.1312976,12.7116976 C39.1277123,8.65160492 39.1286476,4.59135172 39.1284917,0.531098525 L39.1284917,0.161940824 Z" id="Fill-5"></path>
                    <path d="M34.4192964,11.0271508 C34.3486818,11.0056433 34.2841467,10.9769132 34.2168056,10.9668015 C33.4970984,10.8600668 32.7720912,10.8064587 32.0494222,10.8894389 C31.6707848,10.9329353 31.2921474,11.037423 30.9312806,11.1669492 C30.5637108,11.2987224 30.3002702,11.5783193 30.1811764,11.9728365 C29.892327,12.9297575 30.3981641,13.9178161 31.3312738,14.2054381 C31.9615048,14.3999681 32.6012445,14.395153 33.2363078,14.2291926 C33.9204739,14.0507129 34.3505524,13.5987354 34.4093199,12.8719763 C34.4582669,12.2644711 34.4192964,11.6494223 34.4192964,11.0271508 M34.3921729,9.16515144 C34.4217905,7.88658177 33.7200097,7.07282979 32.5005448,6.95871191 C31.2994739,6.84635957 30.1200706,6.98776302 28.9681026,7.35900726 C28.8471382,7.39817008 28.7261737,7.43636987 28.6047417,7.47521168 C28.5321007,7.19657787 28.5166683,5.63584331 28.5799564,5.19381709 C29.1196199,4.94840747 29.6943569,4.79480577 30.2815644,4.69128111 C31.4431971,4.48696035 32.6056092,4.44217991 33.7659949,4.70957849 C35.7057906,5.15658032 36.973423,6.50528995 37.1682755,8.76036199 C37.2602459,9.8246597 37.2223666,10.9013162 37.2307842,11.9725155 C37.2345254,12.4294685 37.234993,12.8896316 37.1872931,13.3427326 C37.0510523,14.6341425 36.4044537,15.5868904 35.3039267,16.2115694 C34.6699546,16.5717389 33.9800209,16.7495767 33.2638989,16.8235687 C32.2194895,16.9312664 31.1831859,16.8935482 30.1732264,16.5701339 C28.9712203,16.1850864 28.0566605,15.4547961 27.6013292,14.2080061 C27.3357063,13.4810865 27.2731976,12.7300913 27.4448237,11.97075 C27.6725673,10.963752 28.2424719,10.2174114 29.1196199,9.71985101 C29.818439,9.32388925 30.5788314,9.14701456 31.3641649,9.06435533 C32.2179307,8.97495497 33.0692023,9.00898168 33.9189151,9.1202105 C34.0676266,9.13963141 34.217585,9.1487801 34.3921729,9.16515144" id="Fill-7"></path>
                    <path d="M72.5838254,11.02309 C72.5108727,11.0015826 72.4564698,10.9786306 72.3998847,10.9701239 C71.6809569,10.8593766 70.9564173,10.8076946 70.2340601,10.8885882 C69.8554227,10.9309611 69.4775647,11.0359303 69.1152949,11.1612834 C68.7726663,11.2798954 68.5157727,11.5330092 68.380623,11.8907711 C68.0506208,12.7647119 68.4994051,13.8362322 69.3542621,14.1527448 C70.1032751,14.4300946 70.8702146,14.425761 71.6225011,14.1551524 C72.1948998,13.9489056 72.532852,13.5073609 72.5744725,12.8918305 C72.616093,12.2827203 72.5838254,11.668474 72.5838254,11.02309 M66.7276503,7.48479373 L66.7276503,5.23935189 C66.7560208,5.21270834 66.7773766,5.17836062 66.8068383,5.16712539 C68.5619138,4.50071548 70.3568951,4.29334516 72.1816499,4.78015181 C73.9976752,5.26439041 75.0009318,6.53589794 75.3039664,8.41378711 C75.3652281,8.791933 75.3848692,9.18067211 75.3886104,9.56475662 C75.399678,10.6494383 75.3959368,11.7339594 75.3923515,12.8188015 C75.386428,14.5403604 74.5120859,15.8431661 72.9495246,16.460462 C71.87503,16.8848328 70.7581354,16.9320208 69.629082,16.8317062 C69.0443686,16.7797031 68.4733728,16.6485719 67.9273182,16.4195336 C65.8232229,15.5374072 65.2793505,13.5280658 65.6271233,11.9445398 C65.8590757,10.8892303 66.4854096,10.1433712 67.4097899,9.65495951 C68.0749384,9.30329667 68.7930868,9.14231181 69.5311881,9.06430718 C70.3854215,8.97426481 71.2371608,9.00989655 72.087653,9.12000185 C72.2366762,9.13942275 72.3867906,9.14905295 72.5339432,9.16317725 C72.6773547,8.41876272 72.2642673,7.59522004 71.5782306,7.22734636 C71.0963993,6.96861497 70.5731035,6.91356232 70.0435723,6.91901943 C68.9852893,6.92961265 67.9430623,7.05833634 66.9391821,7.42781505 C66.8863381,7.44723595 66.8303765,7.45750816 66.7276503,7.48479373" id="Fill-9"></path>
                    <path d="M56.3095258,13.3684131 C56.4636931,13.4560479 56.5650164,13.5117426 56.664625,13.5704868 C57.8426253,14.2637008 59.1048019,14.5161726 60.4492842,14.3360878 C60.5531017,14.3219635 60.6564514,14.297888 60.7577747,14.2697999 C61.128618,14.1675593 61.4277556,13.9906846 61.4947849,13.5509054 C61.5668023,13.0785441 61.4617379,12.6766437 61.042727,12.4318761 C60.760113,12.2670391 60.4564548,12.1328583 60.1493673,12.0216295 C59.6425949,11.8383347 59.1185196,11.7044749 58.6151766,11.5123524 C58.2005304,11.3540961 57.7871314,11.1744929 57.4052204,10.9470596 C56.521993,10.4204481 56.0538793,9.61632635 55.9868501,8.55973281 C55.8775768,6.83480332 56.6795897,5.48368614 58.2591421,4.89560187 C60.0061117,4.2450818 61.7084991,4.44410595 63.3424543,5.33345501 C63.3726954,5.34998685 63.3963894,5.37935896 63.4330217,5.41129913 L63.4330217,7.54487014 C63.3064455,7.49447209 63.2030958,7.4519387 63.0986548,7.41293639 C61.9870602,6.9965907 60.8484981,6.87557118 59.6831242,7.10027586 C59.5138363,7.13285804 59.3422102,7.19721989 59.19194,7.28389169 C58.6468206,7.59879926 58.601459,8.27564188 59.1080755,8.64833066 C59.3044868,8.79278367 59.5347245,8.90096293 59.7641828,8.98249863 C60.2280877,9.14669355 60.7068013,9.26610804 61.1700826,9.43255002 C61.5993817,9.58631222 62.0325778,9.74424752 62.4361563,9.95707496 C63.6104154,10.5766179 64.1993377,11.5995057 64.288658,12.9414742 C64.3279403,13.5367811 64.2899051,14.1205318 64.0432998,14.6739474 C63.6956829,15.4538331 63.1181401,15.9918403 62.3792594,16.3624426 C61.8255665,16.6405949 61.2360207,16.7935546 60.6269897,16.8455577 C59.2092429,16.9665772 57.8543165,16.720365 56.580137,16.0521896 C56.487699,16.0038781 56.4005609,15.9444919 56.3095258,15.8894392 L56.3095258,13.3684131 Z" id="Fill-11"></path>
                    <path d="M20.6421641,7.18447592 L18.7199831,7.18447592 L18.7199831,4.72395959 L20.6346818,4.72395959 C20.6490229,4.1061822 20.6401376,3.520987 20.6418523,2.93659431 C20.6432553,2.36070829 20.6421641,1.78482228 20.6421641,1.19079939 L23.4220079,1.19079939 C23.431205,2.35380665 23.4202932,3.51408535 23.428555,4.7098353 L26.1544636,4.7098353 C26.1967076,5.54252667 26.1694283,6.33926529 26.1745724,7.17179615 L23.4541196,7.17179615 C23.4425843,7.30758199 23.4266844,7.41094614 23.4266844,7.51463131 C23.4252814,9.35737025 23.4240344,11.2004302 23.4282432,13.0434901 C23.428555,13.2348101 23.4513137,13.4283772 23.4837372,13.6172896 C23.5520135,14.0148564 23.7859924,14.259945 24.1697739,14.3440488 C24.7173874,14.4642658 25.2615715,14.4371407 25.801235,14.2878726 C25.9117553,14.2572165 26.0225874,14.2288074 26.1571136,14.1931756 L26.1571136,16.5113255 C25.8185379,16.6962253 25.4416152,16.7710199 25.0617307,16.8244675 C24.3827087,16.919967 23.7057132,16.9005461 23.0464882,16.6925338 C21.7737116,16.2906334 21.0318691,15.3802584 20.763908,14.0615629 C20.6758346,13.6293274 20.6508935,13.1776709 20.64762,12.7342002 C20.6345259,11.0359143 20.6421641,9.33762834 20.6421641,7.6390214 L20.6421641,7.18447592 Z" id="Fill-13"></path>
                    <path d="M51.2420045,4.74103715 L53.9880219,4.74103715 L53.9880219,16.6808812 C53.0680063,16.6871409 52.1648259,16.6844123 51.2420045,16.6818442 L51.2420045,4.74103715 Z" id="Fill-17"></path>
                    <path d="M17.1336031,16.6606096 L14.4599149,16.6606096 C14.3902357,16.3832599 14.3676328,5.25155015 14.4355974,4.74805114 L17.1184826,4.74805114 C17.1942412,4.99394227 17.21435,16.2161759 17.1336031,16.6606096" id="Fill-19"></path>
                    <path d="M17.1987462,0.480331316 L17.1987462,3.00729603 C16.9401379,3.08562166 14.96901,3.1113022 14.4100171,3.04710086 C14.3436114,2.79366607 14.3225673,1.06761307 14.3791525,0.509221919 C14.6243549,0.439081955 16.6079534,0.415487963 17.1987462,0.480331316" id="Fill-25"></path>
                    <polygon id="Fill-27" points="51.1907349 3.04957261 54.0107962 3.04957261 54.0107962 0.47333337 51.1907349 0.47333337"></polygon>
                    <path d="M76.548417,16.53 L76.548417,14.6978174 L78.4238823,14.6978174 L78.4238823,16.53 L76.548417,16.53 Z M79.2157454,12.98044 C79.2157454,11.753666 79.5014461,10.8144313 80.072856,10.1627076 C80.644266,9.51098391 81.4625128,9.18512695 82.527621,9.18512695 C83.2133129,9.18512695 83.8875666,9.32169935 84.5504021,9.59484825 L84.5504021,11.0684073 C83.9972773,10.8335951 83.4167335,10.7161908 82.8087533,10.7161908 C82.1642028,10.7161908 81.6853685,10.8707332 81.3722358,11.1798228 C81.0591031,11.4889123 80.9025392,12.0891121 80.9025392,12.98044 C80.9025392,13.8621839 81.0591031,14.4599876 81.3722358,14.7738692 C81.6853685,15.0877509 82.1642028,15.2446893 82.8087533,15.2446893 C83.3893058,15.2446893 83.9698496,15.122493 84.5504021,14.8780966 L84.5504021,16.3516557 C83.8875666,16.6248046 83.2133129,16.761377 82.527621,16.761377 C81.4625128,16.761377 80.644266,16.43552 80.072856,15.7837963 C79.5014461,15.1320726 79.2157454,14.1976299 79.2157454,12.98044 Z M85.5506503,12.973252 C85.5506503,11.7537481 85.8379759,10.8175288 86.4126359,10.1645661 C86.9872959,9.51160341 87.8113459,9.18512695 88.8848107,9.18512695 C89.9582756,9.18512695 90.7823256,9.51160341 91.3569856,10.1645661 C91.9316455,10.8175288 92.2189712,11.7537481 92.2189712,12.973252 C92.2189712,14.1927558 91.9316455,15.1289751 91.3569856,15.7819378 C90.7823256,16.4349005 89.9582756,16.761377 88.8848107,16.761377 C87.8113459,16.761377 86.9872959,16.4349005 86.4126359,15.7819378 C85.8379759,15.1289751 85.5506503,14.1927558 85.5506503,12.973252 Z M87.2177305,12.9769721 C87.2177305,13.9218823 87.3546052,14.5592531 87.6283587,14.8891036 C87.9021122,15.2189542 88.3220952,15.383877 88.8883204,15.383877 C89.4545455,15.383877 89.8733587,15.2189542 90.1447724,14.8891036 C90.4161861,14.5592531 90.551891,13.9218823 90.551891,12.9769721 C90.551891,12.0320619 90.4161861,11.393451 90.1447724,11.0611204 C89.8733587,10.7287898 89.4545455,10.562627 88.8883204,10.562627 C88.3220952,10.562627 87.9021122,10.7287898 87.6283587,11.0611204 C87.3546052,11.393451 87.2177305,12.0320619 87.2177305,12.9769721 Z M93.2192193,16.761377 L93.2192193,10.0172007 C94.2724684,9.46248208 95.3071425,9.18512695 96.3232727,9.18512695 L96.3511117,9.18512695 C97.1213291,9.18512695 97.7639406,9.36759743 98.2789655,9.73254386 C99.1605396,9.36759743 100.014262,9.18512695 100.840158,9.18512695 C101.800609,9.18512695 102.548776,9.45883267 103.08468,10.0062523 C103.620585,10.553672 103.888533,11.3115327 103.888533,12.2798572 L103.888533,16.761377 L102.183391,16.761377 L102.183391,12.155776 C102.183391,11.6789127 102.068556,11.3188376 101.838883,11.07554 C101.60921,10.8322424 101.181189,10.7105954 100.554807,10.7105954 C100.062982,10.7105954 99.5781233,10.768986 99.1002173,10.8857688 C99.2997315,11.1242005 99.399487,11.588892 99.399487,12.2798572 L99.399487,16.761377 L97.7082651,16.761377 L97.7082651,12.1119827 C97.7082651,11.6545832 97.5957501,11.3115387 97.3707167,11.0828389 C97.1456833,10.8541391 96.724622,10.739791 96.1075201,10.739791 C95.6992121,10.739791 95.3048296,10.778718 94.9243608,10.8565732 L94.9243608,16.761377 L93.2192193,16.761377 Z" id=".com"></path>
                </g>
            </g>
        </g>
    </g>
</svg>